<svg width="20" height="20" viewBox="0 0 20 20" fill="none" xmlns="http://www.w3.org/2000/svg">
<path d="M4.16992 4.99916H17.5033V6.66583H4.16992V4.99916Z" fill="#939393"/>
<path d="M5.83691 1.66667H15.8369V3.33334H5.83691V1.66667Z" fill="#939393"/>
<path d="M17.4975 8.32584H4.16917C3.94943 8.32638 3.73194 8.37021 3.52913 8.4548C3.32632 8.5394 3.14216 8.66312 2.98717 8.81889C2.83217 8.97466 2.70937 9.15943 2.62578 9.36266C2.5422 9.56589 2.49946 9.78359 2.50001 10.0033V16.6483C2.49946 16.8681 2.5422 17.0858 2.62578 17.289C2.70937 17.4922 2.83217 17.677 2.98717 17.8328C3.14216 17.9886 3.32632 18.1123 3.52913 18.1969C3.73194 18.2815 3.94943 18.3253 4.16917 18.3258H17.4975C17.7172 18.3253 17.9347 18.2815 18.1375 18.1969C18.3404 18.1123 18.5245 17.9886 18.6795 17.8328C18.8345 17.677 18.9573 17.4922 19.0409 17.289C19.1245 17.0858 19.1672 16.8681 19.1667 16.6483V10.0033C19.1672 9.78359 19.1245 9.56589 19.0409 9.36266C18.9573 9.15943 18.8345 8.97466 18.6795 8.81889C18.5245 8.66312 18.3404 8.5394 18.1375 8.4548C17.9347 8.37021 17.7172 8.32638 17.4975 8.32584ZM17.5 16.6667H4.16667V10H17.5V16.6667Z" fill="#939393"/>
<path d="M10.0036 15.8258H11.6702V14.1683H13.3369V12.4983H11.6702V10.8258H10.0036V12.5008H8.33691V14.1683H10.0036V15.8258Z" fill="#939393"/>
</svg>
