<svg width="170" height="29" viewBox="0 0 170 29" fill="none" xmlns="http://www.w3.org/2000/svg">
<path d="M16.4541 27.8647H6.99414L10.1475 21.1817H16.4541C18.4607 21.1817 20.0661 19.5959 20.0661 17.6703C20.0661 15.7447 18.4607 14.1589 16.4541 14.1589H13.4728L13.5301 13.989L10.4915 7.41925H16.5114C22.302 7.41925 27.0033 12.0067 27.0033 17.6703C27.0033 23.3338 22.2447 27.8647 16.4541 27.8647Z" fill="#008D96"/>
<path d="M14.0466 14.1023L10.7213 21.1251L7.56795 27.8647H0.687995H0L0.687995 26.3922L6.53595 13.989L3.49731 7.41926L0 0H7.56795L11.0653 7.41926L14.1039 13.9324L14.0466 14.1023Z" fill="#F5AF15"/>
<path d="M35.6533 6.01645H45.1427C47.0608 6.01645 48.4741 6.4652 49.4331 7.36271C50.3921 8.26021 50.8464 9.55661 50.8464 11.202C50.8464 12.2491 50.6445 13.0968 50.2407 13.7948C49.8369 14.4929 49.2312 15.0414 48.5246 15.4403C49.5341 15.7394 50.2912 16.1882 50.8464 16.8862C51.4017 17.5843 51.654 18.5317 51.654 19.7782C51.654 21.6729 51.1493 23.0691 50.0893 23.9666C49.0798 24.9139 47.5655 25.3627 45.5465 25.3627H35.6533V6.01645ZM44.6884 14.2935C46.7579 14.2935 47.8179 13.3461 47.8179 11.4513C47.8179 10.4043 47.5655 9.65634 47.0608 9.15772C46.556 8.70897 45.6475 8.45966 44.3351 8.45966H38.9847V14.2935H44.6884ZM44.8903 23.0192C46.1017 23.0192 46.9598 22.7699 47.515 22.2713C48.0703 21.7727 48.3227 20.925 48.3227 19.7284C48.3227 18.6813 48.0198 17.9333 47.4646 17.4846C46.9093 16.986 45.9503 16.7367 44.537 16.7367H38.9847V23.0192H44.8903Z" fill="#008D96"/>
<path d="M55.7421 24.6148C54.7831 23.8668 54.2783 22.7699 54.2783 21.3738C54.2783 19.9776 54.7831 18.8308 55.7421 18.033C56.7011 17.2353 58.1649 16.7865 60.083 16.7865H64.7267V16.1383C64.7267 15.4402 64.6258 14.8918 64.4239 14.4929C64.222 14.094 63.8182 13.7948 63.2629 13.6452C62.7077 13.4458 61.9001 13.3959 60.8401 13.3959C59.124 13.3959 57.5087 13.6452 56.045 14.1438V11.7006C56.7516 11.4513 57.5592 11.2519 58.4678 11.0524C59.4268 10.9029 60.3858 10.8031 61.4458 10.8031C63.6163 10.8031 65.2315 11.2519 66.3419 12.0995C67.4524 12.9472 67.9572 14.3433 67.9572 16.1882V25.4125H65.1305L64.9286 23.9666C64.3229 24.5649 63.5658 24.9638 62.7077 25.263C61.8496 25.5621 60.7392 25.7117 59.4773 25.7117C57.963 25.7616 56.7516 25.3627 55.7421 24.6148ZM62.8591 22.9195C63.6163 22.6203 64.222 22.1217 64.7267 21.5732V19.0801H60.1335C59.1744 19.0801 58.4678 19.2796 58.0135 19.6286C57.5592 19.9776 57.3573 20.576 57.3573 21.3239C57.3573 22.0718 57.6097 22.5704 58.1144 22.9195C58.6192 23.2685 59.3259 23.4181 60.3354 23.4181C61.2439 23.4181 62.102 23.2186 62.8591 22.9195Z" fill="#008D96"/>
<path d="M71.5918 5.11893H74.9232V16.8862L80.9802 11.1522H84.8164L78.9612 16.8862L85.1697 25.4125H81.6364L76.8412 18.6314L74.9232 20.4264V25.4125H71.5918V5.11893Z" fill="#008D96"/>
<path d="M88.9045 24.3156C87.996 23.3682 87.4912 21.9721 87.4912 20.1771V11.1522H90.8226V20.1771C90.8226 21.2242 91.075 22.022 91.6302 22.5206C92.135 23.0192 92.993 23.2685 94.053 23.2685C94.8606 23.2685 95.5673 23.1189 96.2739 22.8197C96.9806 22.5206 97.5863 22.1217 98.091 21.5732V11.1023H101.372V25.4125H98.3434L98.192 23.9167C96.6777 25.1134 94.8606 25.7117 92.8416 25.7117C91.1254 25.7616 89.8131 25.263 88.9045 24.3156Z" fill="#008D96"/>
<path d="M105.31 6.01645H113.285C116.212 6.01645 118.383 6.81423 119.796 8.35994C121.159 9.90564 121.866 12.3987 121.866 15.889C121.866 19.2297 121.159 21.6231 119.796 23.1688C118.433 24.7145 116.263 25.4624 113.285 25.4624H105.31V6.01645ZM112.729 22.9195C114.092 22.9195 115.203 22.72 116.01 22.3212C116.818 21.9223 117.474 21.2242 117.878 20.1771C118.282 19.13 118.484 17.684 118.484 15.8392C118.484 13.9444 118.282 12.4984 117.928 11.4514C117.525 10.4043 116.919 9.65634 116.111 9.25745C115.304 8.80869 114.143 8.60925 112.729 8.60925H108.59V22.9195H112.729Z" fill="#008D96"/>
<path d="M125.651 23.8668C124.288 22.6203 123.581 20.7256 123.581 18.2325C123.581 15.889 124.187 14.0441 125.398 12.7477C126.61 11.4513 128.376 10.8031 130.749 10.8031C132.869 10.8031 134.534 11.3516 135.645 12.4486C136.806 13.5455 137.361 15.0414 137.361 16.8862V19.5289H126.761C126.912 20.8752 127.417 21.8225 128.275 22.371C129.133 22.9195 130.446 23.1688 132.212 23.1688C132.97 23.1688 133.676 23.1189 134.433 22.9693C135.19 22.8197 135.897 22.6702 136.452 22.4209V24.8142C135.19 25.3627 133.525 25.6619 131.506 25.6619C128.982 25.7616 127.013 25.1134 125.651 23.8668ZM134.433 17.4347V16.4375C134.433 15.3904 134.13 14.6425 133.575 14.094C133.02 13.5455 132.111 13.2962 130.85 13.2962C129.335 13.2962 128.275 13.5954 127.67 14.2436C127.064 14.8918 126.761 15.9389 126.761 17.4347H134.433Z" fill="#008D96"/>
<path d="M138.472 11.1522H141.904L145.942 22.2713L149.98 11.1522H153.412L147.709 25.4624H144.125L138.472 11.1522Z" fill="#008D96"/>
<path d="M156.895 25.5621C155.986 25.4125 155.229 25.263 154.624 25.0137V22.2214C155.28 22.4707 156.037 22.6702 156.844 22.8198C157.652 22.9693 158.46 23.0192 159.267 23.0192C160.428 23.0192 161.286 22.9195 161.741 22.72C162.195 22.5206 162.447 22.1217 162.447 21.5234C162.447 21.0247 162.245 20.6258 161.791 20.3765C161.387 20.1272 160.58 19.8281 159.368 19.479L158.46 19.1799C156.996 18.6812 155.936 18.1826 155.229 17.5843C154.573 16.986 154.22 16.0885 154.22 14.9416C154.22 13.5954 154.724 12.5483 155.684 11.9001C156.643 11.202 158.207 10.853 160.277 10.853C161.084 10.853 161.842 10.9029 162.599 11.0524C163.356 11.1522 164.012 11.3018 164.567 11.5012V14.2436C164.012 14.0441 163.406 13.8447 162.7 13.745C161.993 13.6452 161.387 13.5455 160.782 13.5455C159.671 13.5455 158.863 13.6452 158.359 13.8447C157.854 14.0441 157.602 14.3932 157.602 14.8918C157.602 15.3405 157.803 15.6896 158.157 15.9389C158.561 16.1882 159.318 16.4873 160.428 16.8364L161.084 17.0358C162.245 17.3848 163.204 17.7837 163.81 18.1328C164.466 18.4818 164.921 18.9804 165.223 19.479C165.526 20.0275 165.678 20.7256 165.678 21.5234C165.678 24.3156 163.659 25.7117 159.621 25.7117C158.763 25.7616 157.803 25.6619 156.895 25.5621Z" fill="#008D96"/>
</svg>
