<svg width="20" height="20" viewBox="0 0 20 20" fill="none" xmlns="http://www.w3.org/2000/svg">
<path d="M2.4 0.632503C2.49782 0.616568 2.59804 0.624127 2.69236 0.654555C2.78669 0.684983 2.87243 0.737408 2.9425 0.807503L3.75 1.61625L4.5575 0.807503C4.61556 0.749299 4.68453 0.703121 4.76046 0.671613C4.83639 0.640105 4.91779 0.623886 5 0.623886C5.08221 0.623886 5.16361 0.640105 5.23954 0.671613C5.31547 0.703121 5.38444 0.749299 5.4425 0.807503L6.25 1.61625L7.0575 0.807503C7.11556 0.749299 7.18453 0.703121 7.26046 0.671613C7.33639 0.640105 7.41779 0.623886 7.5 0.623886C7.58221 0.623886 7.66361 0.640105 7.73954 0.671613C7.81547 0.703121 7.88444 0.749299 7.9425 0.807503L8.75 1.61625L9.5575 0.807503C9.61556 0.749299 9.68453 0.703121 9.76046 0.671613C9.83639 0.640105 9.91779 0.623886 10 0.623886C10.0822 0.623886 10.1636 0.640105 10.2395 0.671613C10.3155 0.703121 10.3844 0.749299 10.4425 0.807503L11.25 1.61625L12.0575 0.807503C12.1156 0.749299 12.1845 0.703121 12.2605 0.671613C12.3364 0.640105 12.4178 0.623886 12.5 0.623886C12.5822 0.623886 12.6636 0.640105 12.7395 0.671613C12.8155 0.703121 12.8844 0.749299 12.9425 0.807503L13.75 1.61625L14.5575 0.807503C14.6156 0.749299 14.6845 0.703121 14.7605 0.671613C14.8364 0.640105 14.9178 0.623886 15 0.623886C15.0822 0.623886 15.1636 0.640105 15.2395 0.671613C15.3155 0.703121 15.3844 0.749299 15.4425 0.807503L16.25 1.61625L17.0575 0.807503C17.1275 0.737419 17.2132 0.684987 17.3075 0.654533C17.4018 0.624078 17.5019 0.616473 17.5997 0.632345C17.6975 0.648217 17.7902 0.687111 17.87 0.74582C17.9498 0.804528 18.0145 0.881369 18.0588 0.970003L18.6838 2.22C18.7273 2.30691 18.75 2.40279 18.75 2.5V17.5C18.75 17.5972 18.7273 17.6931 18.6838 17.78L18.0588 19.03C18.0144 19.1184 17.9498 19.195 17.8701 19.2536C17.7904 19.3121 17.6979 19.3509 17.6003 19.3668C17.5027 19.3827 17.4027 19.3751 17.3085 19.3448C17.2144 19.3145 17.1288 19.2623 17.0588 19.1925L16.25 18.3838L15.4425 19.1925C15.3844 19.2507 15.3155 19.2969 15.2395 19.3284C15.1636 19.3599 15.0822 19.3761 15 19.3761C14.9178 19.3761 14.8364 19.3599 14.7605 19.3284C14.6845 19.2969 14.6156 19.2507 14.5575 19.1925L13.75 18.3838L12.9425 19.1925C12.8844 19.2507 12.8155 19.2969 12.7395 19.3284C12.6636 19.3599 12.5822 19.3761 12.5 19.3761C12.4178 19.3761 12.3364 19.3599 12.2605 19.3284C12.1845 19.2969 12.1156 19.2507 12.0575 19.1925L11.25 18.3838L10.4425 19.1925C10.3844 19.2507 10.3155 19.2969 10.2395 19.3284C10.1636 19.3599 10.0822 19.3761 10 19.3761C9.91779 19.3761 9.83639 19.3599 9.76046 19.3284C9.68453 19.2969 9.61556 19.2507 9.5575 19.1925L8.75 18.3838L7.9425 19.1925C7.88444 19.2507 7.81547 19.2969 7.73954 19.3284C7.66361 19.3599 7.58221 19.3761 7.5 19.3761C7.41779 19.3761 7.33639 19.3599 7.26046 19.3284C7.18453 19.2969 7.11556 19.2507 7.0575 19.1925L6.25 18.3838L5.4425 19.1925C5.38444 19.2507 5.31547 19.2969 5.23954 19.3284C5.16361 19.3599 5.08221 19.3761 5 19.3761C4.91779 19.3761 4.83639 19.3599 4.76046 19.3284C4.68453 19.2969 4.61556 19.2507 4.5575 19.1925L3.75 18.3838L2.9425 19.1925C2.87247 19.2626 2.78678 19.315 2.6925 19.3455C2.59822 19.3759 2.49806 19.3835 2.40026 19.3677C2.30246 19.3518 2.20984 19.3129 2.13004 19.2542C2.05023 19.1955 1.98552 19.1186 1.94125 19.03L1.31625 17.78C1.27269 17.6931 1.25001 17.5972 1.25 17.5V2.5C1.25001 2.40279 1.27269 2.30691 1.31625 2.22L1.94125 0.970003C1.98551 0.88143 2.05019 0.804641 2.12995 0.745963C2.20971 0.687285 2.30227 0.648397 2.4 0.632503ZM2.67125 2.305L2.5 2.6475V17.3525L2.67125 17.695L3.30875 17.0575C3.42595 16.9403 3.5849 16.8745 3.75062 16.8745C3.91635 16.8745 4.0753 16.9403 4.1925 17.0575L5 17.8663L5.8075 17.0588C5.86556 17.0006 5.93453 16.9544 6.01046 16.9229C6.08639 16.8914 6.16779 16.8751 6.25 16.8751C6.33221 16.8751 6.41361 16.8914 6.48954 16.9229C6.56547 16.9544 6.63444 17.0006 6.6925 17.0588L7.5 17.8663L8.3075 17.0588C8.36556 17.0006 8.43453 16.9544 8.51046 16.9229C8.58639 16.8914 8.66779 16.8751 8.75 16.8751C8.83221 16.8751 8.91361 16.8914 8.98954 16.9229C9.06547 16.9544 9.13444 17.0006 9.1925 17.0588L10 17.8663L10.8075 17.0588C10.8656 17.0006 10.9345 16.9544 11.0105 16.9229C11.0864 16.8914 11.1678 16.8751 11.25 16.8751C11.3322 16.8751 11.4136 16.8914 11.4895 16.9229C11.5655 16.9544 11.6344 17.0006 11.6925 17.0588L12.5 17.8663L13.3075 17.0588C13.3656 17.0006 13.4345 16.9544 13.5105 16.9229C13.5864 16.8914 13.6678 16.8751 13.75 16.8751C13.8322 16.8751 13.9136 16.8914 13.9895 16.9229C14.0655 16.9544 14.1344 17.0006 14.1925 17.0588L15 17.8663L15.8075 17.0588C15.8656 17.0006 15.9345 16.9544 16.0105 16.9229C16.0864 16.8914 16.1678 16.8751 16.25 16.8751C16.3322 16.8751 16.4136 16.8914 16.4895 16.9229C16.5655 16.9544 16.6344 17.0006 16.6925 17.0588L17.3288 17.695L17.5 17.3525V2.6475L17.3288 2.305L16.6912 2.9425C16.574 3.05967 16.4151 3.1255 16.2494 3.1255C16.0836 3.1255 15.9247 3.05967 15.8075 2.9425L15 2.13375L14.1925 2.9425C14.1344 3.00071 14.0655 3.04689 13.9895 3.07839C13.9136 3.1099 13.8322 3.12612 13.75 3.12612C13.6678 3.12612 13.5864 3.1099 13.5105 3.07839C13.4345 3.04689 13.3656 3.00071 13.3075 2.9425L12.5 2.13375L11.6925 2.9425C11.6344 3.00071 11.5655 3.04689 11.4895 3.07839C11.4136 3.1099 11.3322 3.12612 11.25 3.12612C11.1678 3.12612 11.0864 3.1099 11.0105 3.07839C10.9345 3.04689 10.8656 3.00071 10.8075 2.9425L10 2.13375L9.1925 2.9425C9.13444 3.00071 9.06547 3.04689 8.98954 3.07839C8.91361 3.1099 8.83221 3.12612 8.75 3.12612C8.66779 3.12612 8.58639 3.1099 8.51046 3.07839C8.43453 3.04689 8.36556 3.00071 8.3075 2.9425L7.5 2.13375L6.6925 2.9425C6.63444 3.00071 6.56547 3.04689 6.48954 3.07839C6.41361 3.1099 6.33221 3.12612 6.25 3.12612C6.16779 3.12612 6.08639 3.1099 6.01046 3.07839C5.93453 3.04689 5.86556 3.00071 5.8075 2.9425L5 2.13375L4.1925 2.9425C4.13444 3.00071 4.06547 3.04689 3.98954 3.07839C3.91361 3.1099 3.83221 3.12612 3.75 3.12612C3.66779 3.12612 3.58639 3.1099 3.51046 3.07839C3.43453 3.04689 3.36556 3.00071 3.3075 2.9425L2.67125 2.305Z" fill="#1B2221"/>
<path d="M3.75 5.625C3.75 5.45924 3.81585 5.30027 3.93306 5.18306C4.05027 5.06585 4.20924 5 4.375 5H11.875C12.0408 5 12.1997 5.06585 12.3169 5.18306C12.4342 5.30027 12.5 5.45924 12.5 5.625C12.5 5.79076 12.4342 5.94973 12.3169 6.06694C12.1997 6.18415 12.0408 6.25 11.875 6.25H4.375C4.20924 6.25 4.05027 6.18415 3.93306 6.06694C3.81585 5.94973 3.75 5.79076 3.75 5.625ZM3.75 8.125C3.75 7.95924 3.81585 7.80027 3.93306 7.68306C4.05027 7.56585 4.20924 7.5 4.375 7.5H11.875C12.0408 7.5 12.1997 7.56585 12.3169 7.68306C12.4342 7.80027 12.5 7.95924 12.5 8.125C12.5 8.29076 12.4342 8.44973 12.3169 8.56694C12.1997 8.68415 12.0408 8.75 11.875 8.75H4.375C4.20924 8.75 4.05027 8.68415 3.93306 8.56694C3.81585 8.44973 3.75 8.29076 3.75 8.125ZM3.75 10.625C3.75 10.4592 3.81585 10.3003 3.93306 10.1831C4.05027 10.0658 4.20924 10 4.375 10H11.875C12.0408 10 12.1997 10.0658 12.3169 10.1831C12.4342 10.3003 12.5 10.4592 12.5 10.625C12.5 10.7908 12.4342 10.9497 12.3169 11.0669C12.1997 11.1842 12.0408 11.25 11.875 11.25H4.375C4.20924 11.25 4.05027 11.1842 3.93306 11.0669C3.81585 10.9497 3.75 10.7908 3.75 10.625ZM3.75 13.125C3.75 12.9592 3.81585 12.8003 3.93306 12.6831C4.05027 12.5658 4.20924 12.5 4.375 12.5H11.875C12.0408 12.5 12.1997 12.5658 12.3169 12.6831C12.4342 12.8003 12.5 12.9592 12.5 13.125C12.5 13.2908 12.4342 13.4497 12.3169 13.5669C12.1997 13.6842 12.0408 13.75 11.875 13.75H4.375C4.20924 13.75 4.05027 13.6842 3.93306 13.5669C3.81585 13.4497 3.75 13.2908 3.75 13.125ZM13.75 5.625C13.75 5.45924 13.8158 5.30027 13.9331 5.18306C14.0503 5.06585 14.2092 5 14.375 5H15.625C15.7908 5 15.9497 5.06585 16.0669 5.18306C16.1842 5.30027 16.25 5.45924 16.25 5.625C16.25 5.79076 16.1842 5.94973 16.0669 6.06694C15.9497 6.18415 15.7908 6.25 15.625 6.25H14.375C14.2092 6.25 14.0503 6.18415 13.9331 6.06694C13.8158 5.94973 13.75 5.79076 13.75 5.625ZM13.75 8.125C13.75 7.95924 13.8158 7.80027 13.9331 7.68306C14.0503 7.56585 14.2092 7.5 14.375 7.5H15.625C15.7908 7.5 15.9497 7.56585 16.0669 7.68306C16.1842 7.80027 16.25 7.95924 16.25 8.125C16.25 8.29076 16.1842 8.44973 16.0669 8.56694C15.9497 8.68415 15.7908 8.75 15.625 8.75H14.375C14.2092 8.75 14.0503 8.68415 13.9331 8.56694C13.8158 8.44973 13.75 8.29076 13.75 8.125ZM13.75 10.625C13.75 10.4592 13.8158 10.3003 13.9331 10.1831C14.0503 10.0658 14.2092 10 14.375 10H15.625C15.7908 10 15.9497 10.0658 16.0669 10.1831C16.1842 10.3003 16.25 10.4592 16.25 10.625C16.25 10.7908 16.1842 10.9497 16.0669 11.0669C15.9497 11.1842 15.7908 11.25 15.625 11.25H14.375C14.2092 11.25 14.0503 11.1842 13.9331 11.0669C13.8158 10.9497 13.75 10.7908 13.75 10.625ZM13.75 13.125C13.75 12.9592 13.8158 12.8003 13.9331 12.6831C14.0503 12.5658 14.2092 12.5 14.375 12.5H15.625C15.7908 12.5 15.9497 12.5658 16.0669 12.6831C16.1842 12.8003 16.25 12.9592 16.25 13.125C16.25 13.2908 16.1842 13.4497 16.0669 13.5669C15.9497 13.6842 15.7908 13.75 15.625 13.75H14.375C14.2092 13.75 14.0503 13.6842 13.9331 13.5669C13.8158 13.4497 13.75 13.2908 13.75 13.125Z" fill="#1B2221"/>
</svg>
