<svg width="30" height="30" viewBox="0 0 30 30" fill="none" xmlns="http://www.w3.org/2000/svg">
<path d="M16.7619 15L22.1369 9.63749C22.3723 9.40211 22.5045 9.08286 22.5045 8.74999C22.5045 8.41711 22.3723 8.09787 22.1369 7.86249C21.9016 7.62711 21.5823 7.49487 21.2494 7.49487C20.9166 7.49487 20.5973 7.62711 20.3619 7.86249L14.9994 13.2375L9.63694 7.86249C9.40156 7.62711 9.08231 7.49487 8.74944 7.49487C8.41656 7.49487 8.09732 7.62711 7.86194 7.86249C7.62656 8.09787 7.49432 8.41711 7.49432 8.74999C7.49432 9.08286 7.62656 9.40211 7.86194 9.63749L13.2369 15L7.86194 20.3625C7.74477 20.4787 7.65178 20.6169 7.58832 20.7693C7.52486 20.9216 7.49219 21.085 7.49219 21.25C7.49219 21.415 7.52486 21.5784 7.58832 21.7307C7.65178 21.883 7.74477 22.0213 7.86194 22.1375C7.97814 22.2546 8.11639 22.3476 8.26871 22.4111C8.42104 22.4746 8.58442 22.5072 8.74944 22.5072C8.91445 22.5072 9.07783 22.4746 9.23016 22.4111C9.38248 22.3476 9.52073 22.2546 9.63694 22.1375L14.9994 16.7625L20.3619 22.1375C20.4781 22.2546 20.6164 22.3476 20.7687 22.4111C20.921 22.4746 21.0844 22.5072 21.2494 22.5072C21.4145 22.5072 21.5778 22.4746 21.7302 22.4111C21.8825 22.3476 22.0207 22.2546 22.1369 22.1375C22.2541 22.0213 22.3471 21.883 22.4106 21.7307C22.474 21.5784 22.5067 21.415 22.5067 21.25C22.5067 21.085 22.474 20.9216 22.4106 20.7693C22.3471 20.6169 22.2541 20.4787 22.1369 20.3625L16.7619 15Z" fill="#939393"/>
</svg>
