<svg width="20" height="20" viewBox="0 0 20 20" fill="none" xmlns="http://www.w3.org/2000/svg">
<path d="M10.8749 8.15825L8.33325 6.24992V13.7499L10.8749 11.8416L13.3333 9.99992L10.8749 8.15825ZM10.8749 8.15825L8.33325 6.24992V13.7499L10.8749 11.8416L13.3333 9.99992L10.8749 8.15825ZM10.8749 8.15825L8.33325 6.24992V13.7499L10.8749 11.8416L13.3333 9.99992L10.8749 8.15825ZM9.16658 3.39159V1.70825C7.49158 1.87492 5.96659 2.54159 4.73325 3.54992L5.91659 4.74159C6.85821 4.00649 7.98126 3.53999 9.16658 3.39159ZM4.74159 5.91659L3.54992 4.73325C2.51226 5.99707 1.87151 7.53952 1.70825 9.16658H3.39159C3.54159 7.94992 4.02492 6.84159 4.74159 5.91659ZM3.39159 10.8333H1.70825C1.87492 12.5083 2.54159 14.0333 3.54992 15.2666L4.74159 14.0749C4.00522 13.1372 3.53848 12.0165 3.39159 10.8333ZM4.73325 16.4499C5.9979 17.4862 7.53992 18.1268 9.16658 18.2916V16.6083C7.98126 16.4598 6.85821 15.9933 5.91659 15.2583L4.73325 16.4499ZM18.3333 9.99992C18.3333 14.2999 15.0666 17.8499 10.8749 18.2916V16.6083C14.1416 16.1749 16.6666 13.3749 16.6666 9.99992C16.6666 6.62492 14.1416 3.82492 10.8749 3.39159V1.70825C15.0666 2.14992 18.3333 5.69992 18.3333 9.99992Z" fill="#939393"/>
</svg>
