<svg width="20" height="20" viewBox="0 0 20 20" fill="none" xmlns="http://www.w3.org/2000/svg">
<path d="M8.58366 6.41667C8.50646 6.49294 8.44517 6.58377 8.40333 6.6839C8.3615 6.78404 8.33996 6.89148 8.33996 7C8.33996 7.10852 8.3615 7.21596 8.40333 7.3161C8.44517 7.41623 8.50646 7.50706 8.58366 7.58333L10.167 9.16667H2.50033C2.04199 9.16667 1.66699 9.54167 1.66699 10C1.66699 10.4583 2.04199 10.8333 2.50033 10.8333H10.167L8.58366 12.4167C8.50646 12.4929 8.44517 12.5838 8.40333 12.6839C8.3615 12.784 8.33996 12.8915 8.33996 13C8.33996 13.1085 8.3615 13.216 8.40333 13.3161C8.44517 13.4162 8.50646 13.5071 8.58366 13.5833C8.90866 13.9083 9.42533 13.9083 9.75033 13.5833L12.742 10.5917C12.8192 10.5146 12.8805 10.423 12.9224 10.3222C12.9642 10.2214 12.9857 10.1133 12.9857 10.0042C12.9857 9.89503 12.9642 9.78696 12.9224 9.68615C12.8805 9.58534 12.8192 9.49376 12.742 9.41667L9.75033 6.41667C9.67406 6.33947 9.58322 6.27817 9.48309 6.23634C9.38296 6.19451 9.27551 6.17297 9.16699 6.17297C9.05847 6.17297 8.95103 6.19451 8.8509 6.23634C8.75076 6.27817 8.65993 6.33947 8.58366 6.41667ZM16.667 15.8333H10.8337C10.3753 15.8333 10.0003 16.2083 10.0003 16.6667C10.0003 17.125 10.3753 17.5 10.8337 17.5H16.667C17.5837 17.5 18.3337 16.75 18.3337 15.8333V4.16667C18.3337 3.25 17.5837 2.5 16.667 2.5H10.8337C10.3753 2.5 10.0003 2.875 10.0003 3.33333C10.0003 3.79167 10.3753 4.16667 10.8337 4.16667H16.667V15.8333Z" fill="#008D96"/>
</svg>
