<svg width="31" height="31" viewBox="0 0 31 31" fill="none" xmlns="http://www.w3.org/2000/svg">
<path d="M26.6253 14.2406C26.6162 13.4232 26.6131 12.5998 26.6101 11.7794H24.164C24.1549 12.5968 24.1489 13.4172 24.1428 14.2406C23.3194 14.2436 22.502 14.2497 21.6846 14.2588V16.7079C22.502 16.717 23.3255 16.723 24.1428 16.7321C24.1519 17.5495 24.1519 18.3699 24.158 19.1873H26.6071C26.6101 18.3699 26.6162 17.5495 26.6222 16.7261C27.4457 16.717 28.2631 16.714 29.0804 16.7049V14.2558C28.2661 14.2497 27.4426 14.2497 26.6253 14.2406ZM10.5803 14.2527C10.5773 15.2306 10.5803 16.2114 10.5834 17.1892C12.2242 17.2437 13.868 17.2195 15.5088 17.2437C14.7853 20.8856 9.83561 22.0663 7.21695 19.6868C4.52262 17.601 4.64977 13.0267 7.45006 11.0892C9.40875 9.52705 12.1909 9.91152 14.1496 11.2647C14.9185 10.5533 15.639 9.79043 16.3323 9.00332C14.7036 7.70459 12.7055 6.77822 10.5803 6.8751C6.14225 6.72676 2.06441 10.6139 1.99176 15.055C1.70719 18.6847 4.09274 22.2419 7.45914 23.5255C10.8134 24.8181 15.1153 23.9372 17.2587 20.922C18.6724 19.0178 18.9782 16.5656 18.8117 14.2618C16.0659 14.2406 13.3231 14.2436 10.5803 14.2527Z" fill="white"/>
</svg>
