<svg width="20" height="20" viewBox="0 0 20 20" fill="none" xmlns="http://www.w3.org/2000/svg">
<path d="M4.37533 3.33334H15.6253C16.3171 3.33329 16.9827 3.59796 17.4855 4.07306C17.9884 4.54816 18.2903 5.19766 18.3295 5.88834L18.3337 6.04167V13.9583C18.3337 14.6501 18.069 15.3157 17.5939 15.8185C17.1188 16.3214 16.4693 16.6233 15.7787 16.6625L15.6253 16.6667H4.37533C3.68354 16.6667 3.01797 16.402 2.51513 15.9269C2.0123 15.4518 1.71032 14.8023 1.67116 14.1117L1.66699 13.9583V6.04167C1.66695 5.34989 1.93162 4.68431 2.40672 4.18148C2.88182 3.67864 3.53132 3.37667 4.22199 3.3375L4.37533 3.33334H15.6253H4.37533ZM17.0837 7.81084L10.292 11.3858C10.2153 11.4263 10.131 11.4505 10.0445 11.4566C9.958 11.4628 9.87115 11.4509 9.78949 11.4217L9.70949 11.3867L2.91699 7.81167V13.9583C2.91701 14.3243 3.05463 14.6769 3.30256 14.9462C3.55048 15.2154 3.89058 15.3816 4.25533 15.4117L4.37533 15.4167H15.6253C15.9915 15.4166 16.3442 15.2789 16.6134 15.0308C16.8827 14.7827 17.0487 14.4424 17.0787 14.0775L17.0837 13.9583V7.81084ZM15.6253 4.58334H4.37533C4.00933 4.58335 3.65673 4.72098 3.3875 4.9689C3.11827 5.21683 2.95211 5.55692 2.92199 5.92167L2.91699 6.04167V6.39917L10.0003 10.1267L17.0837 6.39834V6.04167C17.0836 5.67554 16.9459 5.32283 16.6978 5.05358C16.4497 4.78433 16.1094 4.61825 15.7445 4.58834L15.6253 4.58334Z" fill="#939393"/>
</svg>
