<svg width="136" height="136" viewBox="0 0 136 136" fill="none" xmlns="http://www.w3.org/2000/svg">
<g clip-path="url(#clip0_532_915)">
<mask id="mask0_532_915" style="mask-type:alpha" maskUnits="userSpaceOnUse" x="-87" y="-80" width="308" height="304">
<path d="M102.859 -79.6009L-86.1191 47.4415L31.7873 223.109L220.765 96.0663L102.859 -79.6009Z" fill="white"/>
<path d="M36.8903 112.757C37.8085 114.108 37.6465 114 37.7005 113.513C38.4566 113.784 39.1588 114.054 39.9149 114.324C39.1048 115.513 40.6171 114.811 40.6711 115.243C40.185 116.378 38.9427 116.54 37.9165 115.513C36.8363 115.892 37.2684 115.73 36.2422 116.054C36.6203 114.973 35.9181 113.892 36.8903 112.757Z" fill="black"/>
<path d="M56.7654 120.54C55.7392 121.081 55.7392 121.081 55.0911 123.027C54.0108 123.027 54.1729 122.054 53.7948 121.459C54.1189 121.135 54.3889 120.865 54.767 120.486C54.1189 120.27 54.659 120.108 52.8766 121.027C52.2825 119.622 52.3365 119.568 53.5247 119.513C54.0648 119.513 55.3071 118.649 56.7654 120.54Z" fill="black"/>
<path d="M48.9334 118.919C50.2297 116.703 50.4458 116.595 49.0955 116C48.8794 115.946 48.8254 115.622 48.6094 115.297C50.0137 115.297 51.58 114.487 52.1741 116.649C51.1479 117.405 50.3377 118.432 49.2575 119.243C49.1495 119.189 49.0415 119.081 48.9334 118.919Z" fill="black"/>
<path d="M91.2785 128.811C92.3587 128.27 92.5747 129.838 93.6009 129.73C93.1689 130.703 92.6828 131.676 93.817 132.54C92.7908 133.081 93.1148 133.027 90.9004 131.135C91.2785 129.568 91.1704 130.162 91.2785 128.811Z" fill="black"/>
<path d="M117.258 134.108C116.556 134.757 117.528 134.703 113.316 134.27C113.316 133.568 113.37 132.811 113.37 132.27C112.721 131.946 112.181 131.73 111.533 131.405C112.451 130.703 112.451 130.703 114.288 131.676C113.964 132.541 114.072 132.27 113.964 132.811C114.234 133.892 115.152 132.595 115.638 133.405C115.908 133.73 116.664 133.838 117.258 134.108Z" fill="black"/>
<path d="M55.0918 132.703C55.6859 132.865 56.064 132.919 56.7661 133.135C56.7121 132.541 56.6581 132.054 56.6041 131.622C57.2522 131.568 56.9282 131.297 58.2785 133.459C57.0362 133.676 57.6843 135.514 56.118 135.297C55.3619 134.703 55.1458 133.838 55.0918 132.703Z" fill="black"/>
<path d="M100.676 128.216C101 128.054 101.378 127.892 101.702 127.73C102.621 128.649 101.54 129.189 101.54 129.946C100.622 129.784 99.758 129.622 98.8398 129.459C99.38 127.459 98.8939 127.946 101.054 127.081C101.54 127.784 100.784 127.892 100.676 128.216Z" fill="black"/>
<path d="M35.2686 104.649C36.0248 105.405 35.7547 106.595 37.267 106.324C36.7809 106.811 36.6729 107.081 36.4569 107.135C35.4307 107.405 34.4044 107.676 33.3242 107.784C33.9724 107.243 34.2424 106.595 34.4585 105.838C34.5665 105.405 34.9446 105.081 35.2686 104.649Z" fill="black"/>
<path d="M83.0152 103.838C82.3671 105.135 82.151 105.189 81.1788 104.054C80.6387 103.459 79.4505 102.865 79.9366 102.162C80.0446 102 80.5847 101.838 80.6927 101.946C81.5029 102.486 82.6911 102.486 83.0152 103.838Z" fill="black"/>
<path d="M71.3496 96.054C72.1058 95.7297 72.6459 95.4595 73.348 95.1351C73.402 96.2703 73.51 97.2973 73.5641 98.4324C73.132 98.5946 72.6999 98.7027 72.1058 98.9189C72.2138 96.3784 72.3758 97.027 71.3496 96.054Z" fill="black"/>
<path d="M43.3172 115.946C42.9932 115.622 42.7231 115.351 42.291 114.919C42.5611 114.703 42.8851 114.486 43.2092 114.216C43.3712 114.865 43.2092 115.568 44.2354 115.405C44.8835 115.297 45.5317 115.513 46.1258 115.568C45.6397 116.324 44.9916 117.027 43.8033 116.649C43.4793 116.541 43.1012 116.811 42.7231 116.919C42.5611 116.541 42.453 116.757 43.3172 115.946Z" fill="black"/>
<path d="M118.5 112.27C118.554 111.946 118.554 111.73 118.608 111.405C118.392 111.405 118.176 111.514 118.068 111.405C117.204 110.703 117.96 110.27 118.014 110.27C118.932 110.324 119.85 110.378 121.039 110.486C120.066 111.189 119.364 111.73 118.5 112.27Z" fill="black"/>
<path d="M65.084 126.108C65.6781 124.919 66.1642 123.946 66.7043 122.865C66.9744 123.243 67.3525 123.568 67.4065 123.946C67.6225 125.297 66.6503 125.405 65.084 126.108Z" fill="black"/>
<path d="M44.7207 112.27C45.963 111.73 45.963 111.73 47.1512 113.081C46.5031 113.405 45.9089 113.676 45.1528 114C44.9908 113.351 44.8287 112.811 44.7207 112.27Z" fill="black"/>
<path d="M8.9121 97.6757C9.29018 97.3513 8.53402 96.1622 9.8843 96.3243C10.0463 97.2973 9.99232 98.0541 9.02012 98.5946C8.48001 98.9189 7.99391 99.1892 7.50781 98.5946C7.61583 97.7838 8.48001 98.1081 8.9121 97.6757Z" fill="black"/>
<path d="M44.7755 102.541C44.5055 102.649 44.1814 102.865 43.8033 103.027C43.6953 103.081 43.3713 102.865 43.3172 102.757C42.9932 100.324 43.2632 100.757 43.7493 100.216C44.0734 100.919 44.3975 101.622 44.7755 102.541Z" fill="black"/>
<path d="M57.5226 138.541C56.1183 136.432 56.1723 137.081 56.8744 135.568C57.7386 135.676 56.9825 136.703 57.7926 136.973C58.1167 137.081 58.2247 138 57.5226 138.541Z" fill="black"/>
<path d="M1.24202 22.973C1.40405 24.2703 1.07999 24.6487 -0.270292 25.0811C-0.432325 24.0001 -0.108258 23.5136 1.24202 22.973Z" fill="black"/>
<path d="M-2.80859 90.2703C-1.08024 89.6216 -0.972216 89.6216 0.540096 89.9459C0.594107 90.2703 0.702129 90 0.216029 90.973C-0.648149 90.3784 -0.324082 90.6486 -0.972216 90.1622C-2.10645 90.8649 -1.67436 90.7568 -2.80859 90.2703Z" fill="black"/>
<path d="M70.4304 95.5135C70.4844 93.8378 70.7005 94.3784 69.2422 93.0811C70.7005 92.0541 71.4026 94.2703 70.8085 95.5135C70.7005 95.5135 70.5384 95.5135 70.4304 95.5135Z" fill="black"/>
<path d="M38.0243 103.568C37.2141 103.838 36.35 103.351 36.1339 102.595C35.9719 102.162 35.9719 102.162 36.8361 101.784C37.2141 102.324 37.5922 102.919 38.0243 103.568Z" fill="black"/>
<path d="M121.201 116.216C121.471 115.405 121.471 115.405 122.443 114.865C122.605 115.73 122.605 115.73 123.47 116.162C122.659 117.243 121.957 116.216 121.201 116.216Z" fill="black"/>
<path d="M47.6387 119.297C47.0986 118.595 46.6665 118 46.2344 117.459C47.2066 116.324 47.5306 118 48.4488 117.838C48.1788 118.378 47.9627 118.757 47.6387 119.297Z" fill="black"/>
<path d="M65.7852 94.3243C66.3793 92.8107 66.1092 93.1351 66.9194 92.9729C66.9734 92.9729 67.2435 94.6486 67.1894 94.6486C66.2172 94.8107 66.3793 94.7026 65.7852 94.3243Z" fill="black"/>
<path d="M101.486 65.0811C101.918 64.1081 101.27 64.4324 103.485 63.6757C103.485 63.8378 103.593 64.1081 103.539 64.2162C103.053 64.7027 102.567 65.2973 101.486 65.0811Z" fill="black"/>
<path d="M97.5435 129.838C97.0034 129.622 96.4633 129.351 95.8691 129.135C96.3552 128.703 96.7333 128.324 97.1654 127.892C97.9216 129.784 97.8676 129.405 97.5435 129.838Z" fill="black"/>
<path d="M93.1699 93.3514C93.548 92.1081 93.386 91.1892 95.2763 92.3784C94.6282 92.7027 94.0881 92.9189 93.1699 93.3514Z" fill="black"/>
<path d="M27.1677 93.1352C26.0335 94.1081 26.0335 94.1081 25.2773 92.8108C26.0875 91.946 26.3576 93.1892 27.1677 93.1352Z" fill="black"/>
<path d="M102.783 127.784C103.377 126.811 103.593 126.865 104.566 128C103.917 128.811 103.431 127.892 102.783 127.784Z" fill="black"/>
<path d="M3.02538 91.7838C3.13341 92.2162 3.24143 92.4325 3.29544 92.8108C0.97296 92.973 1.24302 92.973 3.02538 91.7838Z" fill="black"/>
<path d="M123.848 114.919C124.01 114.378 124.172 113.838 124.334 113.297C125.684 113.892 124.874 115.243 123.848 114.919Z" fill="black"/>
<path d="M57.5762 125.46C58.2783 125.189 58.7104 124.973 59.2505 124.757C58.9805 126.108 58.7644 126.216 57.5762 125.46Z" fill="black"/>
<path d="M34.3516 125.892C33.9735 126.216 33.7035 126.487 33.3794 126.811C33.2174 126.432 33.0013 126.162 33.0553 125.946C33.2714 125.351 33.7035 125.405 34.3516 125.892Z" fill="black"/>
<path d="M57.2509 122.919C57.575 123.405 57.899 123.514 57.575 124.378C57.575 124.432 57.0889 124.432 57.0889 124.378C56.6568 123.676 57.0889 123.297 57.2509 122.919Z" fill="black"/>
<path d="M6.42825 87.2432C5.88814 87.4054 5.40204 87.5675 4.75391 87.7297C5.186 86.5946 5.18599 86.5946 6.42825 87.2432Z" fill="black"/>
<path d="M118.447 135.946C118.663 134.486 118.663 134.486 119.906 134.973C119.473 135.243 119.041 135.513 118.447 135.946Z" fill="black"/>
<path d="M97.166 122.216C97.5981 122.162 98.0842 122.162 98.6783 122.108C97.9762 123.135 97.9762 123.135 97.166 122.216Z" fill="black"/>
<path d="M121.416 114.324C120.336 114.973 120.282 114.919 120.174 113.568C120.606 113.838 120.984 114.108 121.416 114.324Z" fill="black"/>
<path d="M0.540099 95.1351C-0.162045 97.1892 0.0539992 96.9189 -0.37809 96.9189C-0.37809 95.6757 -0.540123 94.973 0.540099 95.1351Z" fill="black"/>
<path d="M82.097 107.297C80.7467 108.919 81.0167 108.811 80.6387 108.486C80.7467 107.73 81.5029 107.622 81.8809 107.081C81.9349 107.189 82.043 107.243 82.097 107.297Z" fill="black"/>
<path d="M110.129 129.838C110.669 128.54 111.587 129.459 111.209 129.946C110.831 130.432 110.453 130.216 110.129 129.838Z" fill="black"/>
<path d="M106.51 97.3514C106.78 96.8649 107.104 96.3244 107.86 96.973C106.456 97.7298 106.726 97.6757 106.51 97.3514Z" fill="black"/>
<path d="M86.3105 117.73C87.5528 118.324 87.4988 117.892 87.0127 119.189C86.5806 119.135 86.7426 119.351 86.3105 117.73Z" fill="black"/>
<path d="M79.9355 106.649C80.2056 106.595 80.2596 106.541 80.2596 106.595C80.5837 106.865 81.0157 107.135 80.6917 107.622C80.6377 107.73 80.2056 107.73 80.2056 107.73C80.0976 107.351 80.0436 107.027 79.9355 106.649Z" fill="black"/>
<path d="M98.1919 132.757C97.4898 131.892 97.7598 131.459 98.1379 130.973C98.786 131.135 98.678 130.757 98.1919 132.757Z" fill="black"/>
<path d="M2.64738 82.2162C2.43134 82.6486 2.21529 83.1351 1.99925 83.6216C1.62117 82.8648 1.62117 82.8648 2.64738 82.2162Z" fill="black"/>
<path d="M109.751 123.946C110.453 124.703 110.453 124.703 109.697 125.297C109.697 124.811 109.697 124.432 109.751 123.946Z" fill="black"/>
<path d="M114.071 127.676C113.909 128.054 113.801 128.378 113.639 128.595C113.585 128.649 113.045 128.487 113.045 128.378C113.045 128.108 113.099 127.784 113.261 127.514C113.261 127.46 113.639 127.622 114.071 127.676Z" fill="black"/>
<path d="M30.625 114.162C31.5432 114.162 31.4352 114.865 31.8673 115.297C30.8951 115.297 30.8951 115.297 30.625 114.162Z" fill="black"/>
<path d="M25.7085 120.973C25.4924 121.351 25.3304 122.054 24.5202 121.405C24.4662 121.351 24.5742 120.919 24.6823 120.811C24.7903 120.757 25.0603 120.865 25.7085 120.973Z" fill="black"/>
<path d="M120.174 133.243C121.254 133.622 121.2 133.297 120.822 134.432C120.282 134.324 120.444 134.595 120.174 133.243Z" fill="black"/>
<path d="M58.331 104.108C58.115 103.838 57.953 103.514 57.6289 103.081C57.953 103.081 58.277 103.027 58.4391 103.135C58.7091 103.405 58.8712 103.838 58.331 104.108Z" fill="black"/>
<path d="M54.3886 108.324C53.5244 108.865 53.5244 108.865 52.8223 108.432C53.5784 107.676 54.3346 108.486 54.3886 108.324Z" fill="black"/>
<path d="M54.3359 108.324C54.768 108.162 55.2001 107.946 55.6862 107.73C55.3622 108.919 55.3081 108.973 54.3359 108.324C54.3899 108.324 54.3359 108.324 54.3359 108.324Z" fill="black"/>
<path d="M81.8806 77.3514C81.0704 77.1352 81.2864 77.2973 81.2324 76.6487C82.1506 76.8108 82.0426 76.5946 81.8806 77.3514Z" fill="black"/>
<path d="M71.6196 125.784C71.6196 123.946 71.4575 124.216 72.1057 124.973C72.4837 125.405 72.2677 125.567 71.6196 125.784Z" fill="black"/>
<path d="M47.2598 99.2432C47.9079 98.6486 47.9079 98.6486 48.448 99.4594C47.9619 99.4054 47.6378 99.2973 47.2598 99.2432Z" fill="black"/>
<path d="M6.10291 97.3514C5.72483 97.4054 5.29274 97.4595 4.80664 97.5135C5.13071 96.8108 5.13071 96.8108 6.10291 97.3514Z" fill="black"/>
<path d="M21.0098 88.1082C21.8199 88.3244 21.6579 88.0541 21.7119 88.973C21.1178 88.919 21.2798 89.1892 21.0098 88.1082Z" fill="black"/>
<path d="M57.1445 131.027C55.9563 130.811 56.6044 130.27 56.5504 129.892C56.9825 129.838 56.8204 129.622 57.1445 131.027Z" fill="black"/>
<path d="M58.3328 106.432C57.9548 106.378 57.6847 106.378 57.3066 106.324C57.9008 105.622 57.9008 105.622 58.3328 106.432Z" fill="black"/>
<path d="M36.133 112.703C35.1608 113.459 35.3768 113.459 35.0527 113.081C36.0249 112.216 35.7549 112.216 36.133 112.703Z" fill="black"/>
<path d="M22.1447 96.1621C21.8747 96.054 21.6046 95.9459 21.2266 95.8378C21.7667 95.5135 21.7667 95.5135 22.1447 96.1621Z" fill="black"/>
<path d="M0.917969 85.4595C2.0522 84.5946 1.78215 84.7027 2.0522 84.9189C1.67412 85.5135 1.94418 85.3514 1.13401 85.7298C1.08 85.6757 0.97198 85.5676 0.917969 85.4595Z" fill="black"/>
<path d="M10.1535 98.5405C9.99143 98.8108 9.77538 99.027 9.55934 99.2973C9.28928 98.7567 9.28928 98.7567 10.1535 98.5405Z" fill="black"/>
<path d="M102.242 115.351C103.43 114.919 103.214 114.865 103.376 115.351C102.188 115.73 102.404 115.784 102.242 115.351Z" fill="black"/>
<path d="M100.784 118.919C101.054 119.676 100.892 120 100.082 120.162C100.46 119.243 100.244 119.568 100.784 118.919Z" fill="black"/>
<path d="M93.2227 134.324C93.2227 134.054 93.2227 133.784 93.2227 133.459L93.4927 133.405C93.5467 133.676 93.6547 133.946 93.7088 134.216C93.5467 134.27 93.3847 134.324 93.2227 134.324Z" fill="black"/>
<path d="M122.821 117.946C121.633 118.432 121.849 118.487 121.633 118C122.767 117.405 122.497 117.405 122.821 117.946Z" fill="black"/>
<path d="M86.0391 98.6486C87.2273 97.8378 87.0113 97.8919 87.1733 98.1621C85.985 98.9729 86.2551 98.9189 86.0391 98.6486Z" fill="black"/>
<path d="M2.64647 87.946C1.99834 87.4595 2.10636 87.5676 2.10636 87.2974C3.02455 87.3514 2.91653 87.1893 2.64647 87.946Z" fill="black"/>
<path d="M22.7386 93.8379C23.9809 94.2163 23.7648 94.0541 23.7108 94.4325C22.4686 94.2163 22.6306 94.3784 22.7386 93.8379Z" fill="black"/>
<path d="M29.8141 113.081C29.274 114.054 29.436 113.946 29.0039 113.676C29.598 112.757 29.436 112.865 29.8141 113.081Z" fill="black"/>
<path d="M86.3095 109.622C85.4453 110.216 85.6614 110.162 85.4453 109.946C86.2015 109.135 85.9854 109.189 86.3095 109.622Z" fill="black"/>
<path d="M115.314 128.703C114.72 129.568 114.936 129.405 114.504 129.297C114.72 128.595 114.558 128.757 115.314 128.703Z" fill="black"/>
<path d="M124.55 103.189C124.55 103.514 124.55 103.676 124.496 103.784C124.333 103.73 124.171 103.73 124.063 103.622C124.009 103.568 124.063 103.351 124.117 103.243C124.225 103.189 124.387 103.189 124.55 103.189Z" fill="black"/>
<path d="M90.1992 125.297C90.5233 125.405 90.7393 125.46 90.9014 125.514C90.9554 125.514 90.9014 125.838 90.8474 125.838C90.0912 126.108 90.2532 125.892 90.1992 125.297Z" fill="black"/>
<path d="M19.0666 79.5676C18.4725 79.4054 18.5265 79.5676 18.6345 78.9189C18.9046 78.973 18.7966 78.7568 19.0666 79.5676Z" fill="black"/>
<path d="M18.0391 78.3783C18.6872 77.5675 18.5252 77.6216 18.8492 77.8919C18.1471 78.7027 18.3091 78.6486 18.0391 78.3783Z" fill="black"/>
<path d="M-0.486328 85.7298C0.215816 85.0271 0.053783 85.0812 0.323839 85.3514C-0.486328 86.0001 -0.324295 85.946 -0.486328 85.7298Z" fill="black"/>
<path d="M104.512 64.1082C104.674 64.1082 104.836 64.1622 104.944 64.1622C104.89 64.3244 104.836 64.4865 104.782 64.5947C104.728 64.6487 104.458 64.5947 104.458 64.4865C104.404 64.4325 104.458 64.2703 104.512 64.1082Z" fill="black"/>
<path d="M29.0589 112.27C28.2487 112.487 28.4108 112.487 28.3027 112.162C29.1129 111.946 28.9509 111.946 29.0589 112.27Z" fill="black"/>
<path d="M30.3008 108.595C30.5708 108.108 30.6249 107.946 30.7329 107.838C30.7869 107.784 31.0569 107.946 31.0569 108C31.0029 108.54 30.6789 108.486 30.3008 108.595Z" fill="black"/>
<path d="M56.4951 128.378C56.009 128.757 56.171 128.703 55.793 128.432C56.2251 128.054 56.063 128.108 56.4951 128.378Z" fill="black"/>
<path d="M73.1319 131.946C73.2399 132.649 73.2939 132.541 72.9699 132.541C72.9159 131.892 72.8619 132 73.1319 131.946Z" fill="black"/>
<path d="M133.786 89.6757C134.165 89.8919 134.489 89.8919 134.111 90.4865C134.056 90.5405 133.786 90.4865 133.732 90.4865C133.732 90.2703 133.786 90.1081 133.786 89.6757Z" fill="black"/>
<path d="M42.2908 99.8379C42.1288 100.378 42.2368 100.216 41.8047 100.216C42.0207 99.6757 41.9127 99.7838 42.2908 99.8379Z" fill="black"/>
<path d="M54.606 105.892C54.8761 106.054 54.8761 105.892 54.7681 106.378C54.39 106.216 54.444 106.324 54.606 105.892Z" fill="black"/>
<path d="M62.6535 103.243L62.4375 103.189C62.4375 102.973 62.4375 102.703 62.4375 102.486C62.8696 102.541 62.8696 102.432 62.6535 103.243Z" fill="black"/>
<path d="M97.4367 118.919C97.0586 118.919 97.1666 119.027 97.0586 118.541C97.3286 118.541 97.2746 118.432 97.4367 118.919Z" fill="black"/>
<path d="M100.192 111.946C100.84 112.432 100.678 112.27 100.678 112.703C100.084 112.703 99.8675 112.865 100.192 111.946Z" fill="black"/>
<path d="M44.2883 104.378C44.0183 104.378 43.8022 104.378 43.8022 104.378C43.7482 104.216 43.7482 104 43.8022 103.838C43.8022 103.784 44.1263 103.784 44.1803 103.838C44.2343 103.946 44.2343 104.108 44.2883 104.378Z" fill="black"/>
<path d="M103.054 120C103.81 120.108 103.648 120 103.648 120.486C102.892 120.27 103 120.378 103.054 120Z" fill="black"/>
<path d="M97.2731 125.189C96.787 125.946 96.8951 125.838 96.625 125.676C97.1111 124.919 97.0031 125.027 97.2731 125.189Z" fill="black"/>
<path d="M106.78 121.351C107.375 121.513 107.213 121.405 107.213 121.838C106.618 121.784 106.726 121.892 106.78 121.351Z" fill="black"/>
<path d="M0.540808 79.5676C0.918885 79.8379 0.972897 79.6757 0.432785 80.3784C0.000696272 80.1082 0.000696272 80.3244 0.540808 79.5676Z" fill="black"/>
<path d="M17.4453 67.7838C18.2555 67.7297 18.0934 67.6757 18.1475 68C17.3373 68.1081 17.4993 68.1622 17.4453 67.7838Z" fill="black"/>
<path d="M2.5925 87.9459C3.18662 88.6486 3.34866 88.4865 2.05239 88.5946C1.94437 88.3243 1.89036 88.4865 2.5925 87.9459C2.64651 87.9459 2.5925 87.9459 2.5925 87.9459Z" fill="black"/>
<path d="M8.64132 124.054C8.58731 124.811 8.69533 124.703 8.42528 124.703C8.31725 123.946 8.26324 124.108 8.64132 124.054Z" fill="black"/>
<path d="M2.37695 78C2.91706 78.1622 2.80904 78 2.80904 78.4865C2.26893 78.4324 2.43096 78.5405 2.37695 78Z" fill="black"/>
<path d="M102.855 -79.5916L-86.123 47.4508L1.33556 177.754L190.314 50.7117L102.855 -79.5916Z" fill="white"/>
<path d="M118.986 -5.13504C120.121 -5.40531 120.229 -4.48639 120.715 -4.21612C121.525 -3.78368 121.471 -3.18909 121.579 -2.54044C122.011 -2.48639 122.335 -2.43233 122.767 -2.32423C123.307 -3.45936 123.685 -4.75666 125.09 -5.13504C124.928 -5.78368 124.82 -6.27017 124.712 -6.75666C125.198 -7.18909 125.63 -7.56747 126.17 -8.05396C126.602 -6.37828 126.116 -6.05395 127.574 -6.16206C128.384 -6.21612 128.546 -5.72963 128.6 -4.97287C127.952 -4.75666 127.304 -4.54044 126.656 -4.32423C125.846 -3.2972 126.872 -2.27017 126.71 -1.13504C126.062 -1.18909 125.414 -1.51341 124.874 -0.864766C124.712 -0.64855 124.118 -0.594495 123.955 -0.702603C122.713 -1.89179 122.335 0.162261 120.553 -0.540442C119.959 -0.810711 119.149 -0.648549 118.338 -0.648549C117.96 -1.13504 118.23 -1.72963 118.608 -2.16206C119.04 -2.64855 118.986 -3.08098 118.878 -3.67558C118.77 -4.16206 118.932 -4.64855 118.986 -5.13504ZM125.954 -3.9999C125.414 -3.89179 125.036 -3.89179 124.874 -3.72963C124.442 -3.13504 124.712 -2.7026 125.198 -2.16206C125.414 -2.7026 125.576 -3.18909 125.954 -3.9999Z" fill="black"/>
<path d="M71.943 4.10811C71.7809 3.89189 71.6729 3.67568 71.5109 3.51352C70.3766 4.21622 70.3766 4.21622 70.4306 5.72973C69.9445 6.16216 69.4584 6.54054 68.8643 7.02703C68.8103 6.64865 68.5943 6.27027 68.6483 5.89189C68.9183 4.10811 68.5943 3.62162 66.9199 3.51352C69.7285 0.0540575 72.5371 3.56757 70.4306 1.56757C70.7547 1.35135 71.0248 1.13514 71.3488 0.864868C71.8889 1.45946 72.375 2 72.8611 2.54054C73.8333 1.40541 74.4815 1.35135 75.9938 2.27027C75.5077 3.83784 75.4537 5.62162 73.7253 6.5946C73.4013 6.81081 73.0772 7.13514 72.5911 6.5946C73.0772 6.27027 73.0772 5.45946 73.9954 5.62162C74.1034 5.62162 74.4275 5.18919 74.4275 4.97298C74.4275 4.81081 74.0494 4.54054 73.8333 4.54054C73.5093 4.54054 73.1852 4.75676 71.7269 5.56757C71.2408 4.81081 71.5109 4.43244 71.943 4.10811C72.213 4.10811 72.4831 4.16217 72.8611 4.21622C72.8071 3.78379 72.7531 3.45946 72.6991 2.91892C72.321 3.45946 72.159 3.78379 71.943 4.10811Z" fill="black"/>
<path d="M112.667 21.5136C112.559 21.2433 112.451 21.0271 112.235 20.6487C112.883 20.4866 113.477 20.3785 114.18 20.2163C114.18 21.1893 114.234 22.0001 114.234 22.865C115.368 23.1352 115.53 24.1082 115.746 25.2433C114.774 24.7028 115.152 24.5947 114.18 26.0541C113.207 27.5136 111.425 26.5947 111.641 25.6758C112.181 23.2974 112.883 23.2433 112.019 22.5406C111.371 22.0001 112.397 21.8379 112.667 21.5136Z" fill="black"/>
<path d="M3.40172 75.8379C2.64556 77.2433 1.78139 78.4866 -0.271036 78.1623C-0.379058 77.7298 -0.541092 77.2433 -0.703125 76.6487C0.0530307 76.5406 0.701164 76.5406 1.02523 75.7839C1.18726 75.4595 1.8354 75.3514 2.3215 75.1352C2.48353 74.1623 1.45732 74.4325 1.02523 73.946C0.809186 73.1352 0.647153 72.2704 0.323086 71.0812C1.51133 71.892 2.05144 72.919 3.02364 73.4055C3.99584 73.892 4.86002 74.5406 5.7242 75.0812C4.96804 76.0541 4.96804 76.0541 3.40172 75.8379Z" fill="black"/>
<path d="M11.8819 63.6757C11.6118 64.3244 10.9637 64.973 11.8279 65.6217C11.2878 66.2703 10.7477 66.7568 9.93748 66.8109C10.1535 64.973 10.3696 64.5406 9.34336 64.6487C9.61342 65.3514 8.64122 66.2703 9.93748 66.7568C10.5316 67.7298 9.45138 68.0001 9.23534 68.5947C8.47918 68.6487 7.88506 68.7028 7.12891 68.7568C7.39896 67.8379 7.66902 67.0271 7.29094 66.0541C7.12891 65.5676 7.561 64.8649 7.77704 64.1082C8.80325 64.5947 9.72144 63.2974 10.8017 64.2703C10.9097 63.892 11.0177 64.0001 10.1535 63.4055C9.55941 62.973 9.55941 62.973 10.2075 62.1622C10.6936 62.3244 10.7477 63.2974 11.5578 63.0811C11.6118 63.0811 11.8279 63.7839 11.8819 63.6757Z" fill="black"/>
<path d="M63.1929 0.0540667C61.8426 -0.270257 62.2207 -1.5135 61.5185 -2.05404C61.7346 -2.64864 61.9506 -3.18918 62.1666 -3.72972C61.0864 -4.75674 61.0864 -4.75674 62.5447 -6.54053C63.0848 -6.27026 63.6249 -5.35134 64.4891 -3.13512C64.111 -2.1081 63.6249 -1.02701 63.1929 0.0540667Z" fill="black"/>
<path d="M1.62003 69.3514C3.72646 68.4866 4.64465 69.4055 4.26657 72.2163C3.56443 72.2703 2.75426 72.8649 2.10613 72.1082C1.0259 70.8649 1.56601 69.7839 1.62003 69.3514Z" fill="black"/>
<path d="M93.871 76.054C93.0608 76.1081 92.1426 75.7837 91.7645 77.2432C91.4945 76.5405 91.2244 76.2162 91.2784 76C91.5485 75.1351 91.7645 74.2702 91.4405 73.3513C92.4667 73.3513 93.3309 73.3513 94.4111 73.3513C93.4389 74.9189 93.5469 74.2162 93.871 76.054Z" fill="black"/>
<path d="M85.3377 67.0271C85.1756 66.4865 85.0136 65.946 84.8516 65.4054C85.7698 65.1892 86.6339 65.1352 87.3901 64.8108C88.0922 64.4865 88.7404 64 89.7126 64.4325C89.3345 64.9189 89.0104 65.3514 88.6323 65.7838C88.0382 64.973 88.3083 65.027 87.174 65.7298C87.2821 66.2162 87.3361 66.6487 87.4441 67.2973C86.6339 67.1352 86.0938 67.0811 85.3377 67.0271Z" fill="black"/>
<path d="M106.132 20.9731C106.078 21.892 105.376 22.0001 104.727 22.2163C103.755 21.7839 103.917 20.9731 103.917 20.3244C102.729 19.2974 102.891 19.5677 103.107 19.0812C105.7 19.5136 105.051 19.0271 106.132 20.9731Z" fill="black"/>
<path d="M72.9134 13.3514C71.6711 12.1622 71.9412 12.6487 71.9952 11.0271C71.6171 10.919 71.7791 10.8109 71.023 11.946C69.3486 10.7028 70.1048 9.02711 70.7529 9.83792C71.293 10.5406 70.1588 10.919 72.3733 9.6217C72.6973 10.8109 73.4535 11.892 72.9134 13.3514Z" fill="black"/>
<path d="M128.545 29.6217C128.545 30.2163 128.599 30.5406 128.491 30.8109C128.275 31.4055 127.627 31.946 128.167 32.7568C128.221 32.8109 127.951 33.2433 127.789 33.2433C127.627 33.2974 127.249 33.0812 127.195 32.9731C126.763 31.3514 127.789 31.892 125.79 31.2433C125.736 30.7568 125.304 31.0812 128.545 29.6217Z" fill="black"/>
<path d="M5.56302 63.5136C6.37319 63.4055 6.96731 63.3514 7.07534 64.1082C7.29138 65.2433 6.80528 65.892 5.29297 66.5406C5.40099 65.5136 5.50901 64.5406 5.56302 63.5136Z" fill="black"/>
<path d="M106.132 21.0271C106.456 20.7568 106.78 20.5406 107.212 20.2163C109.21 21.6758 108.67 21.1893 108.886 22.1082C107.86 22.1082 108.184 22.1082 107.698 21.946C107.428 22.3785 107.482 23.1352 106.78 22.919C106.078 20.7568 106.132 20.9731 106.132 21.0271Z" fill="black"/>
<path d="M7.29091 45.7297C8.26311 46 9.34333 45.3514 10.3155 46.2162C10.2075 46.4324 10.0995 46.7568 9.99147 46.8108C8.42514 47.2432 6.80481 47.5135 7.29091 45.7297Z" fill="black"/>
<path d="M69.5652 78.7569C69.1331 78.4325 68.755 78.1082 68.377 77.7839C68.701 76.7028 69.4032 77.3515 69.9433 77.2974C69.6732 76.3244 70.4834 76.1082 71.1315 75.6758C71.2936 77.1893 70.2133 77.7839 69.5652 78.7569Z" fill="black"/>
<path d="M119.525 84.3784C119.741 83.6757 119.957 82.919 120.174 82.1622C120.984 82.3784 121.632 82.7568 121.74 83.6217C121.308 84.8109 120.12 83.8379 119.525 84.3784Z" fill="black"/>
<path d="M81.5568 81.1353C81.8269 82.0001 80.7467 82.1623 80.6927 82.865C79.5044 82.6488 79.5584 81.7299 79.2344 80.865C81.8269 81.0812 81.5568 81.0272 81.5568 81.1353Z" fill="black"/>
<path d="M99.2168 78.973C99.8109 78.5946 100.189 78.3243 100.675 78C101.161 78.4324 101.593 78.8108 102.187 79.3513C100.999 79.7838 100.081 79.8919 99.2168 78.973Z" fill="black"/>
<path d="M106.779 98.3784C107.265 97.6757 107.643 97.027 108.184 96.2703C108.508 96.5946 108.778 96.7567 108.94 97.0811C109.534 98.1081 108.562 98.2162 107.265 98.5405C107.211 98.5405 107.157 98.4865 106.779 98.3784Z" fill="black"/>
<path d="M44.3418 7.89197C44.9359 8.05413 47.5284 8.37845 46.2862 9.40548C45.9081 9.7298 45.476 9.94602 45.152 10.1622C44.8819 9.45953 44.6659 8.86494 44.3418 7.89197Z" fill="black"/>
<path d="M89.0094 40.919C88.1452 41.1352 87.389 41.5136 86.7949 40.6487C87.281 40.0541 87.7671 39.4055 88.8473 39.5676C88.8473 40.0001 88.9013 40.4325 89.0094 40.919Z" fill="black"/>
<path d="M5.77865 53.892C4.26634 53.0812 3.88826 52.5406 4.05029 51.946C4.21232 51.4055 4.69842 51.3514 5.94068 51.7298C5.50859 52.3244 4.91447 52.919 5.77865 53.892Z" fill="black"/>
<path d="M93.709 7.92742e-05C94.0871 -0.324245 94.5191 -0.648569 95.3293 -1.24316C94.7892 0.0541334 95.9774 0.270349 96.1395 1.13521C94.2491 1.24332 94.8432 1.45954 93.709 7.92742e-05Z" fill="black"/>
<path d="M90.3055 8.70274C89.7114 10.2703 88.6312 9.29733 87.875 10.2163C88.091 4.32436 87.5509 9.72977 90.3055 8.70274Z" fill="black"/>
<path d="M82.2572 70.5406C80.4209 70.3244 79.7187 69.4055 80.1508 67.892C80.8529 68.7568 81.5011 69.5136 82.2572 70.5406Z" fill="black"/>
<path d="M21.1719 119.459C23.3323 118.703 23.9805 120.108 23.6564 120.595C23.2243 121.189 22.6302 120.541 21.1719 119.459Z" fill="black"/>
<path d="M25.6546 3.2973C25.2766 2.32432 24.9525 1.40541 24.0343 0.918919C23.9263 0.864865 23.9803 0.324324 23.9803 0C24.2504 0.108108 24.6284 0.108108 24.7905 0.324324C25.2226 0.864865 25.4926 1.51351 25.8707 2.05405C26.1948 2.54054 26.1407 2.86486 25.6546 3.2973Z" fill="black"/>
<path d="M83.2835 78.8108C83.6616 79.3513 83.9857 79.7838 84.3098 80.2162C83.1215 79.9459 82.5814 81.2432 81.5552 81.1351C81.5552 81.1892 81.2851 81.3513 83.2835 78.8108Z" fill="black"/>
<path d="M24.7368 52.2163C24.8989 53.4055 25.0609 54.2704 25.1689 55.1893C23.6026 54.5947 23.3866 53.7298 24.7368 52.2163Z" fill="black"/>
<path d="M100.676 17.1352C100.892 16.919 101.108 16.6487 101.324 16.4325C102.566 17.6217 102.62 17.7298 102.296 19.0811C101.27 17.6217 101.648 18.1082 100.676 17.1352Z" fill="black"/>
<path d="M66.2715 72C67.4597 71.3514 67.8378 72.9189 68.3779 74.3784C67.4057 74.9189 67.4057 74.3784 66.2715 72Z" fill="black"/>
<path d="M122.928 2.8108C122.388 3.62161 121.902 4.37837 120.605 4.37837C120.984 3.72972 121.254 3.18918 121.632 2.54053C123.09 2.91891 122.928 2.86485 122.928 2.8108Z" fill="black"/>
<path d="M95.5451 36.7568C95.5451 37.6217 95.5991 38.3785 95.5991 39.1893C94.6809 38.919 94.5189 38.5947 94.4648 37.6217C94.4648 37.0271 94.4648 37.0271 95.5451 36.7568Z" fill="black"/>
<path d="M78.5312 3.45947C79.0174 3.83785 79.3954 4.10812 79.7195 4.37839C79.5035 5.83785 79.5035 5.83785 78.5312 5.7838C78.5312 5.08109 78.5312 4.37839 78.5312 3.45947Z" fill="black"/>
<path d="M97.7598 40.4325C97.1656 40.1622 96.7876 40.0001 96.3555 39.8379C96.5715 38.9731 96.8956 38.5406 97.9218 38.7028C97.8678 39.1893 97.8138 39.6217 97.7598 40.4325Z" fill="black"/>
<path d="M44.0714 120.324C45.2597 121.676 45.2057 121.838 43.6934 122.757C43.7474 122.27 43.9634 121.838 43.8554 121.568C43.5313 121.081 43.7474 120.811 44.0714 120.324Z" fill="black"/>
<path d="M-1.18846 75.8379C-1.89061 74.4866 0.161814 73.5136 0.43187 75.3514C-0.108241 75.5136 -0.648353 75.6758 -1.18846 75.8379Z" fill="black"/>
<path d="M71.6172 8.16221C72.8594 7.83789 72.8594 7.83789 73.4536 8.86492C72.4274 9.2433 72.4274 9.2433 71.6172 8.16221Z" fill="black"/>
<path d="M81.7715 72.2703C83.0137 72.4325 83.6619 70.973 84.9582 72.1622C84.148 72.2163 83.4998 72.0541 83.1218 72.8649C82.9597 73.2433 82.3656 72.973 81.7715 72.2703Z" fill="black"/>
<path d="M106.076 17.7838C106.724 17.5135 107.102 16.3784 108.399 17.0271C107.534 17.5676 107.048 18.3244 106.076 17.7838Z" fill="black"/>
<path d="M96.625 92.9731C97.3271 92.0001 98.0293 92.2704 98.8395 93.5677C98.6234 94.0001 99.0015 94.0541 96.625 92.9731Z" fill="black"/>
<path d="M79.4505 1.6757C79.2885 2.32434 79.7206 1.94597 77.8302 3.0811C77.7762 3.02705 77.7222 3.02705 77.6682 2.97299C77.4521 2.00002 77.6142 1.56759 78.3703 1.24326C78.3703 1.18921 78.3703 1.02705 78.4783 2.05407C78.9644 1.45948 78.7484 1.51353 79.4505 1.6757Z" fill="black"/>
<path d="M77.7746 87.4054C76.8564 86.4865 77.9366 86.0541 78.1527 85.4595C78.5848 86.1622 78.8008 86.8108 77.7746 87.4054Z" fill="black"/>
<path d="M128.222 3.83793C127.682 3.78387 127.25 3.78387 126.764 3.72982C126.872 2.48658 128.816 2.43252 128.222 3.83793Z" fill="black"/>
<path d="M72.3201 72.973C72.3201 72.5406 72.2661 72.1081 72.3742 71.7298C72.4282 71.5676 72.8063 71.2973 72.9683 71.3514C73.1843 71.4054 73.4544 71.8379 73.4004 71.946C73.1843 72.3784 72.8603 72.7027 72.5902 73.0811C72.5362 73.0271 72.4282 72.973 72.3201 72.973Z" fill="black"/>
<path d="M92.6275 6.91898C91.9253 7.40547 91.6013 7.62169 91.0612 7.94601C91.0071 7.35141 91.0071 7.02709 90.9531 6.4325C91.5472 6.64871 91.9253 6.75682 92.6275 6.91898Z" fill="black"/>
<path d="M40.6696 12.4325C40.3455 13.0811 40.0754 13.6757 39.6974 14.4325C39.2113 13.5676 39.3733 13.1893 40.6696 12.4325Z" fill="black"/>
<path d="M109.372 11.4596C108.778 11.4055 108.508 11.3514 108.076 11.2974C108.076 10.919 108.076 10.5947 108.076 10.2163C108.94 10.1623 108.94 10.7568 109.372 11.4596Z" fill="black"/>
<path d="M95.9238 5.24331C95.3836 4.97304 94.8975 4.70277 94.3574 4.4325C95.1136 3.72979 95.4377 3.8379 95.9238 5.24331Z" fill="black"/>
<path d="M-0.000883639 34.5406C-0.540995 33.892 -0.865061 33.4595 -0.378961 32.7568C0.323183 33.2433 0.539227 33.7298 -0.000883639 34.5406Z" fill="black"/>
<path d="M8.10148 51.1352C7.50736 51.7839 7.50736 51.7839 6.53516 51.1893C7.18329 50.5947 7.18329 50.5947 8.10148 51.1352Z" fill="black"/>
<path d="M70.2137 11.946C69.5656 12.0541 69.0255 12.1622 68.4314 12.2703C68.2153 11.3514 69.5656 10.6487 70.2137 11.946Z" fill="black"/>
<path d="M118.5 80.5406C118.446 81.6217 118.716 81.0811 117.798 82.6487C117.636 82.5947 117.474 82.5406 117.096 82.4325C118.608 80.3785 118.554 80.5406 118.5 80.5406Z" fill="black"/>
<path d="M30.6777 126.865C31.5959 127.892 31.5418 128.378 30.5156 129.027C30.6777 127.622 30.6236 128.216 30.6777 126.865Z" fill="black"/>
<path d="M117.149 87.1352C116.123 86.2163 116.123 86.1082 117.257 85.1353C117.257 85.7839 117.203 86.4325 117.149 87.1352Z" fill="black"/>
<path d="M6.31836 59.2433C7.12853 58.1622 7.12853 58.1622 7.72265 59.2433C7.18254 59.2974 6.75045 59.2433 6.31836 59.2433Z" fill="black"/>
<path d="M100.514 15.4054C100.946 14.8649 101.324 14.4865 101.756 14C101.81 14.3243 102.026 14.6486 101.918 14.8108C101.702 15.2432 101.324 15.6216 100.514 15.4054Z" fill="black"/>
<path d="M118.553 88.3244C118.067 88.6487 117.689 88.919 117.203 89.2433C117.203 88.4865 117.365 87.946 118.067 87.8379C118.175 87.8379 118.337 88.1082 118.553 88.3244Z" fill="black"/>
<path d="M101.162 75.5136C101.054 74.3244 101.054 74.3244 102.027 74.1622C101.811 74.7028 102.135 75.4595 101.162 75.5136Z" fill="black"/>
<path d="M95.0584 64.4866C94.7343 64.4866 94.4103 64.5406 94.1402 64.5406C93.8701 64.0541 93.9242 63.6758 94.4103 63.5676C95.0044 63.4595 95.1124 63.8379 95.0584 64.4866Z" fill="black"/>
<path d="M79.4504 7.40542C78.7483 7.35137 78.2082 7.45948 77.9381 7.24326C77.6141 6.97299 77.7761 6.54056 78.2622 6.32434C78.5863 6.59461 78.8563 6.86488 79.4504 7.40542Z" fill="black"/>
<path d="M77.2343 0.162274C76.8562 0.324437 76.4241 0.486599 75.668 0.810923C75.884 0.10822 75.992 -0.216104 76.1001 -0.594482C77.3423 0.216328 77.2343 0.216329 77.2343 0.162274Z" fill="black"/>
<path d="M111.423 2.37842C111.531 2.8649 111.585 3.24328 111.639 3.62166C111.207 3.72977 111.423 3.89193 110.613 2.8649C110.829 2.70274 111.045 2.54058 111.423 2.37842Z" fill="black"/>
<path d="M98.1368 0.918945C98.8389 0.972999 99.433 1.18922 99.4871 2.21624C97.7047 1.13516 97.8667 1.40543 98.1368 0.918945Z" fill="black"/>
<path d="M5.94037 110.919C4.53608 111.027 4.96817 109.622 5.45427 109.676C6.15642 109.838 5.99438 110.324 5.94037 110.919Z" fill="black"/>
<path d="M74.4805 8.48654C75.0746 7.29735 75.0746 7.29735 76.3169 8.00005C75.6687 8.21627 75.1286 8.32437 74.4805 8.48654Z" fill="black"/>
<path d="M93.9785 34.973C95.0047 34.5946 95.0047 34.5947 95.1128 36.1082C94.6807 35.6217 94.3566 35.3514 93.9785 34.973Z" fill="black"/>
<path d="M48.8791 5.4595C48.1229 5.35139 47.7989 5.08112 48.0149 4.37842C48.609 4.37842 48.9871 4.59463 48.8791 5.4595Z" fill="black"/>
<path d="M7.07422 55.8379C7.07422 55.4595 7.07422 55.0811 7.07422 54.5946C7.34427 54.6487 7.61433 54.6487 7.66834 54.7568C8.20845 55.3514 7.72235 55.6216 7.07422 55.8379Z" fill="black"/>
<path d="M6.31873 55.4054C6.42675 56.7568 6.58879 56.5405 5.72461 56.5405C5.77862 55.1892 5.61659 55.4054 6.31873 55.4054Z" fill="black"/>
<path d="M79.5038 47.1893C78.3155 46.5947 78.5316 45.946 78.7476 45.2974C79.1797 45.2974 79.0177 44.9731 79.5038 47.1893Z" fill="black"/>
<path d="M99.5412 55.1351C99.7032 56 99.6492 56.4865 98.785 56.5946C98.407 55.8919 98.785 55.5135 99.5412 55.1351Z" fill="black"/>
<path d="M129.411 -0.432407C129.141 -0.108083 128.87 0.216242 128.438 0.756782C128.168 -0.270245 128.222 -0.756731 129.411 -0.432407Z" fill="black"/>
<path d="M68.8637 61.6758C68.1076 61.2433 68.6477 60.5947 68.4316 59.946C70.106 60.6487 68.5937 61.6217 68.8637 61.6758Z" fill="black"/>
<path d="M102.025 10.8108C102.511 11.0811 103.052 11.3513 103.7 11.6757C102.782 12.054 102.782 12.054 102.025 10.8108Z" fill="black"/>
<path d="M121.849 81.4595C120.444 80.973 120.444 80.973 120.876 80.1082C121.525 80.2163 121.525 80.7568 121.849 81.4595Z" fill="black"/>
<path d="M119.255 85.8379C119.58 86.8109 119.201 86.973 118.445 86.8109C118.661 86.5406 118.931 86.2703 119.255 85.8379Z" fill="black"/>
<path d="M110.561 18.9189C110.831 18.4325 111.047 18.1081 111.209 17.7838C111.371 17.7838 111.479 17.7838 111.479 17.8379C111.803 18.4865 111.695 18.973 110.561 18.9189Z" fill="black"/>
<path d="M59.0879 126.595C59.736 126.811 60.2221 126.919 60.8162 127.081C59.844 127.73 59.844 127.73 59.0879 126.595Z" fill="black"/>
<path d="M90.6297 73.7298C90.0356 73.5136 89.7116 73.5136 89.5495 73.3514C89.4955 73.2974 89.6035 72.8109 89.7116 72.7568C89.9276 72.7028 90.3057 72.7028 90.4677 72.8649C90.6297 73.0271 90.5757 73.3514 90.6297 73.7298Z" fill="black"/>
<path d="M106.456 12.0541C105.159 11.6757 105.159 11.6757 105.915 10.6487C106.077 11.1352 106.24 11.5135 106.456 12.0541Z" fill="black"/>
<path d="M95.5449 17.946C96.5711 18.4325 96.5171 18.1082 96.1931 19.1352C95.4909 18.865 95.5989 19.1893 95.5449 17.946Z" fill="black"/>
<path d="M40.0219 113.351C40.4 113.514 40.6701 113.676 40.9941 113.838C40.8321 114.162 41.1562 114.054 39.5898 114.27C39.6979 113.892 39.8599 113.676 40.0219 113.351Z" fill="black"/>
<path d="M3.02389 66.2703C3.40197 66.7027 3.67203 66.973 4.15813 67.4594C3.564 67.4054 3.23994 67.4594 2.96988 67.3513C2.37576 67.0811 2.75384 66.7567 3.02389 66.2703Z" fill="black"/>
<path d="M-0.918635 66.8108C-0.64858 66.0541 -0.702591 65.8919 0.053565 65.7297C0.107576 65.7297 0.323621 66 0.269609 66.0541C0.107576 66.2703 -0.000446141 66.5405 -0.216491 66.7027C-0.432535 66.8108 -1.02666 66.8108 -0.918635 66.8108Z" fill="black"/>
<path d="M122.551 82.8649C123.307 82.0541 123.631 82.4865 124.117 83.2433C123.523 83.1351 123.091 83.027 122.551 82.8649Z" fill="black"/>
<path d="M114.287 84.5947C114.449 85.0811 114.773 85.5676 113.639 85.7839C114.017 84.2703 113.855 84.4866 114.287 84.5947Z" fill="black"/>
<path d="M83.5 0.486572C83.9321 0.864951 84.1481 1.02711 84.4182 1.24333C83.662 1.72982 83.662 1.72982 83.5 0.486572Z" fill="black"/>
<path d="M4.42773 61.5676C4.91383 61.6217 5.2379 61.6757 5.66999 61.7298C5.39993 62.1622 5.18389 62.4865 4.85982 63.0271C4.69779 62.4325 4.58977 62.1082 4.42773 61.5676Z" fill="black"/>
<path d="M19.5508 122.054C19.5508 120.973 20.1449 121.081 20.739 121.243C20.415 121.46 20.0369 121.73 19.5508 122.054Z" fill="black"/>
<path d="M58.8172 11.3514C59.6273 11.892 59.1952 12.3785 59.1952 12.8109C58.6011 12.8109 58.7091 13.0812 58.8172 11.3514Z" fill="black"/>
<path d="M122.928 2.86494C123.684 1.40549 123.468 1.56765 123.846 1.78386C123.684 2.27035 123.9 2.97305 122.928 2.86494C122.928 2.86494 122.928 2.81089 122.928 2.86494Z" fill="black"/>
<path d="M107.805 94.973C107.102 94.2703 107.102 94.4865 107.697 94C108.183 94.9189 108.183 94.7027 107.805 94.973Z" fill="black"/>
<path d="M41.6414 11.2432C41.2094 10.8649 40.9933 10.6486 40.6152 10.3243C41.0473 10.2162 41.3714 10.1081 41.7495 10C41.7495 10.4324 41.6955 10.7027 41.6414 11.2432Z" fill="black"/>
<path d="M82.1504 5.56761C82.8525 4.97301 83.1226 5.24328 83.3926 5.72977C82.8525 6.00004 83.2306 6.05409 82.1504 5.56761Z" fill="black"/>
<path d="M15.3375 66.7569C15.0134 67.5136 15.2295 67.3515 14.5273 67.2974C14.7434 66.5406 14.5814 66.7569 15.3375 66.7569Z" fill="black"/>
<path d="M84.6341 23.4054C84.31 23.3514 84.04 23.3514 83.986 23.2432C83.878 23.1351 83.8779 22.8649 83.932 22.7027C83.986 22.5946 84.3641 22.5405 84.4181 22.6487C84.5261 22.8108 84.5261 23.027 84.6341 23.4054Z" fill="black"/>
<path d="M87.9298 47.0812C87.3896 47.8379 87.7677 47.7298 86.6875 47.6217C86.9035 46.9731 86.5795 47.1352 87.9298 47.0812Z" fill="black"/>
<path d="M60.8165 65.9459C60.4925 65.9459 60.1684 65.9459 59.7363 65.9459C60.1144 65.2432 60.4385 65.2973 60.8165 65.9459Z" fill="black"/>
<path d="M15.3382 97.1351C15.4462 97.6216 15.5003 97.9459 15.5543 98.3243C15.3382 98.3243 15.2302 98.3784 15.1222 98.2703C14.6361 98 14.6901 97.6216 15.3382 97.1351Z" fill="black"/>
<path d="M67.0817 65.4055C67.1357 64.3244 67.1357 64.3244 68.0539 64.4866C67.8918 65.4055 66.7036 65.4055 67.0817 65.4055Z" fill="black"/>
<path d="M66.2174 82.865C66.1094 83.2974 66.2174 83.7839 65.4613 83.4055C65.4072 83.4055 65.4072 82.9731 65.5153 82.919C65.6233 82.8109 65.8933 82.865 66.2174 82.865Z" fill="black"/>
<path d="M84.7425 77.8379C84.9045 78.7028 84.5805 78.919 84.1484 79.0271C83.7703 78.6487 83.6623 78.919 84.7425 77.8379Z" fill="black"/>
<path d="M42.1818 112.324C41.6417 112.973 41.9657 112.973 41.1016 112.649C41.4256 112.162 41.1556 112.216 42.1818 112.324Z" fill="black"/>
<path d="M104.996 71.2974C105.32 70.5947 105.644 70.4865 106.238 71.0811C105.752 71.1893 105.482 71.2433 104.996 71.2974Z" fill="black"/>
<path d="M39.4812 116.865C39.1031 117.135 38.7251 117.351 38.293 117.676C38.347 116.703 38.8871 116.811 39.4812 116.865Z" fill="black"/>
<path d="M115.69 88.2703C116.284 89.1351 116.284 88.9189 115.69 89.2973C115.15 88.3784 115.15 88.5946 115.69 88.2703Z" fill="black"/>
<path d="M108.939 95.1892C109.426 95.1892 109.912 95.2433 110.398 95.2433C109.75 95.946 109.75 95.946 108.939 95.1892Z" fill="black"/>
<path d="M42.2903 6.48657C41.6422 7.35144 41.3181 7.08117 40.832 6.48657C41.3721 6.48657 41.6962 6.48657 42.2903 6.48657Z" fill="black"/>
<path d="M69.0247 -0.918823C68.8627 -0.594499 68.7547 -0.270175 68.4846 0.32442C68.1066 -0.486391 68.4306 -0.756661 69.0247 -0.918823Z" fill="black"/>
<path d="M90.1973 75.7838C90.2513 75.4054 90.3053 75.0811 90.4133 74.5946C90.8994 75.2433 90.8994 75.2433 90.1973 75.7838Z" fill="black"/>
<path d="M10.586 50.6487C10.0459 51.1351 9.72183 51.0811 9.34375 50.5946C9.77584 50.1622 10.1539 50.2703 10.586 50.6487Z" fill="black"/>
<path d="M80.7449 5.83789C80.3669 6.54059 80.3669 6.54059 79.7188 6.00005C80.1508 5.946 80.4209 5.89194 80.7449 5.83789Z" fill="black"/>
<path d="M59.3583 29.3514C59.1423 29.5136 58.9802 29.7298 58.7642 29.892L58.4941 29.6757C58.6562 29.4595 58.8182 29.2433 58.9802 29.0271C59.0883 29.1352 59.1963 29.2433 59.3583 29.3514Z" fill="black"/>
<path d="M63.571 15.4055C63.571 14.7028 63.301 14.919 64.3812 14.4866C64.5972 14.9731 64.7593 14.8109 63.571 15.4055Z" fill="black"/>
<path d="M59.8435 1.67574C59.0333 2.10817 59.1413 2.27033 59.3034 1.02709C59.5734 0.973035 59.4654 0.864927 59.8435 1.67574Z" fill="black"/>
<path d="M8.15511 38C7.45296 37.4054 7.56098 37.5676 7.88505 37.1892C8.5872 37.8379 8.53318 37.6757 8.15511 38Z" fill="black"/>
<path d="M79.4503 1.67566C78.7482 1.51349 79.0182 1.6216 78.3161 1.18917C78.3161 1.24322 78.2081 1.29728 79.1803 0.810791C79.2883 1.08106 79.3963 1.40539 79.4503 1.67566Z" fill="black"/>
<path d="M64.3809 1.94598C65.245 1.24328 65.029 1.24328 65.299 1.5676C64.5429 2.37841 64.7589 2.32436 64.3809 1.94598Z" fill="black"/>
<path d="M81.9336 4.16223C83.0678 4.4325 82.8518 4.32439 82.9058 4.70277C81.9336 5.08115 82.1496 5.24331 81.9336 4.16223Z" fill="black"/>
<path d="M37.5371 126.324C37.4291 126.595 37.3211 126.865 37.267 126.865C37.051 126.865 36.835 126.811 36.6729 126.649C36.6189 126.595 36.7269 126.324 36.7809 126.108C36.997 126.162 37.213 126.216 37.5371 126.324Z" fill="black"/>
<path d="M77.3974 9.35144C77.8295 10.2704 77.7755 9.94604 77.5055 10.5947C76.8033 10.2163 76.9113 9.89198 77.3974 9.35144Z" fill="black"/>
<path d="M101.594 68.7028C102.35 68.8649 102.242 68.6487 102.08 69.4595C101.486 69.2433 101.594 69.4595 101.594 68.7028Z" fill="black"/>
<path d="M86.3086 77.5676C86.9027 76.5946 86.6867 76.7027 87.1728 76.973C86.5786 77.946 86.7947 77.8379 86.3086 77.5676Z" fill="black"/>
<path d="M86.6324 43.7838C86.3623 43.8379 86.0383 43.946 85.8222 43.8379C85.5522 43.7298 85.7682 43.3514 86.2003 43.2974C86.6864 43.2974 86.5784 43.1893 86.6324 43.7838Z" fill="black"/>
<path d="M20.5777 116.919C20.1997 117.946 20.4157 117.73 19.7676 117.676C19.9296 116.919 19.7676 117.135 20.5777 116.919Z" fill="black"/>
<path d="M81.0703 3.35144C81.3404 3.40549 81.6104 3.35144 81.6644 3.45955C81.7185 3.5136 81.7185 3.83793 81.6104 3.94604C81.5024 4.05414 81.2323 4.05414 81.1243 3.94604C81.0703 3.83793 81.1243 3.62171 81.0703 3.35144Z" fill="black"/>
<path d="M41.4794 20.1081C41.0473 20.7568 41.3174 20.7027 40.6152 20.5405C40.8313 19.8919 40.6152 20.0541 41.4794 20.1081Z" fill="black"/>
<path d="M76.8574 62.7568C76.8034 61.4595 76.6954 61.6757 77.1275 61.6757C77.0735 62.973 77.1815 62.7568 76.8574 62.7568Z" fill="black"/>
<path d="M90.468 108.378C89.7118 108.108 89.4418 107.892 89.6038 107.405C90.0899 107.297 89.9279 107.081 90.468 108.378Z" fill="black"/>
<path d="M15.8792 61.6217C15.8252 62.0001 15.7712 62.3244 15.7172 62.5947C15.5551 62.5406 15.4471 62.5406 15.3931 62.4866C15.069 62.0001 15.123 61.7298 15.8792 61.6217Z" fill="black"/>
<path d="M32.7832 125.676C32.9992 125.514 33.1613 125.351 33.3773 125.189L33.5934 125.351C33.4854 125.568 33.3233 125.784 33.2153 126.054C33.0533 125.892 32.9452 125.784 32.7832 125.676Z" fill="black"/>
<path d="M78.6385 83.1892C79.6107 83.5135 79.4486 83.3514 79.3406 83.7297C78.4224 83.3514 78.5304 83.5135 78.6385 83.1892Z" fill="black"/>
<path d="M53.7949 122.595C53.9029 122.378 54.011 122.108 54.173 121.892L54.389 121.946C54.227 122.919 54.281 122.811 53.7949 122.595Z" fill="black"/>
<path d="M107.266 95.4595C108.022 95.5135 107.914 95.2973 107.86 96.1081C107.104 96.0541 107.32 96.1622 107.266 95.4595Z" fill="black"/>
<path d="M105.105 97.8919C105.159 97.6757 105.159 97.4054 105.213 97.1892H105.484C105.592 98.1081 105.592 97.946 105.105 97.8919Z" fill="black"/>
<path d="M4.69727 36.4325C4.75128 36.3244 4.75128 36.1082 4.80529 36.0541C5.02133 35.892 5.3454 35.7839 5.66947 35.8379C4.75128 36.7568 4.96732 36.6487 4.69727 36.4325Z" fill="black"/>
<path d="M121.633 88.2703C121.092 88.973 121.254 88.919 120.984 88.7027C121.47 88 121.362 88.0541 121.633 88.2703Z" fill="black"/>
<path d="M51.2562 16.973C51.6343 17.1892 51.5263 16.973 51.7423 17.6757C50.8781 17.6217 51.0942 17.4055 51.2562 16.973Z" fill="black"/>
<path d="M81.4484 17.0812C81.6104 17.2974 81.7724 17.4596 81.9885 17.6758C81.9345 17.7298 81.8264 17.8379 81.7724 17.8379C81.0163 17.2433 81.1243 17.2974 81.4484 17.0812Z" fill="black"/>
<path d="M14.7991 63.6217C14.367 64.2163 14.5291 64.1082 14.043 64.0001C14.421 63.2973 14.259 63.4054 14.7991 63.6217Z" fill="black"/>
<path d="M77.2344 0.162159C77.5584 -0.108111 77.9365 -0.432436 78.4766 -0.864868C78.2066 0.594591 77.2884 -3.27826e-06 77.2344 0.162159Z" fill="black"/>
<path d="M111.856 7.5135C110.83 7.18917 111.046 7.40539 110.992 6.70269C111.37 6.54053 111.154 6.43242 111.856 7.5135Z" fill="black"/>
<path d="M109.749 8.91895C109.479 8.8649 109.263 8.8649 109.209 8.75679C109.155 8.64868 109.155 8.37841 109.263 8.2703C109.371 8.16219 109.641 8.21625 109.749 8.2703C109.803 8.37841 109.749 8.59463 109.749 8.91895Z" fill="black"/>
<path d="M107.805 14.7027C108.507 14.2703 108.345 14.2703 108.507 14.4865C107.913 15.027 108.075 15.027 107.805 14.7027Z" fill="black"/>
<path d="M60.8165 47.8919C60.6544 47.8378 60.4384 47.8379 60.4384 47.7297C60.3844 47.6216 60.4384 47.4054 60.4924 47.3514C60.5464 47.2973 60.8165 47.3514 60.8705 47.4054C60.8705 47.5135 60.8165 47.6757 60.8165 47.8919Z" fill="black"/>
<path d="M97.3271 23.027C97.1651 23.2973 97.1111 23.5135 96.9491 23.6757C96.8951 23.7297 96.625 23.5676 96.625 23.5676C96.787 22.7568 96.787 22.973 97.3271 23.027Z" fill="black"/>
<path d="M118.499 9.45947C118.931 10.4324 118.931 10.2162 118.553 10.4324C118.013 9.45947 118.013 9.67569 118.499 9.45947Z" fill="black"/>
<path d="M92.0349 28.2703C91.8189 28.2162 91.6569 28.2162 91.5488 28.1622C91.6028 28 91.6028 27.8378 91.6568 27.6757C91.6568 27.6216 91.9269 27.6216 91.9269 27.6757C91.9809 27.8378 92.0349 28 92.0349 28.2703Z" fill="black"/>
<path d="M42.3449 16.4325C42.2909 16.6487 42.2368 16.8108 42.1288 16.973C42.1288 17.0271 41.5347 17.0271 41.8048 16.4325C41.9128 16.3784 42.1288 16.4325 42.3449 16.4325Z" fill="black"/>
<path d="M77.5043 3.946C77.2882 3.56762 77.1262 3.3514 76.9102 2.97302C78.0444 3.02708 77.8824 2.86491 77.5043 3.946Z" fill="black"/>
<path d="M58.1696 67.4055C57.7915 68.2703 57.8996 68.1622 57.5215 68.0001C57.9536 67.1352 57.7915 67.2433 58.1696 67.4055Z" fill="black"/>
<path d="M3.67141 105.946C2.86124 105.784 2.96926 105.946 3.02328 105.243C3.77943 105.351 3.56339 105.189 3.67141 105.946Z" fill="black"/>
<path d="M68.1077 10.4325C67.8377 11.1893 68.0537 11.1352 67.3516 10.973C67.4596 10.4865 67.2976 10.5947 68.1077 10.4325Z" fill="black"/>
<path d="M59.8438 1.67567C60.87 1.72972 60.4919 2.43242 60.1678 2.43242C59.4657 2.32432 59.9518 1.45945 59.8438 1.67567Z" fill="black"/>
<path d="M86.0938 72.5405C86.8499 71.9459 86.6879 71.9459 86.9579 72.2702C86.1478 72.973 86.3098 72.9189 86.0938 72.5405Z" fill="black"/>
<path d="M78.2067 90C77.5585 91.1351 77.7206 91.027 77.3965 90.9189C77.4505 90.1081 77.2885 90.3784 78.2067 90Z" fill="black"/>
<path d="M86.9023 5.51357C87.2804 5.18925 87.4965 4.97303 87.7125 4.70276C87.7665 5.35141 87.7665 5.35141 86.9023 5.51357Z" fill="black"/>
<path d="M62.8682 23.2433C62.4902 23.8379 62.5982 23.7838 62.3281 23.6216C62.7602 23.0271 62.5982 23.0811 62.8682 23.2433Z" fill="black"/>
<path d="M4.21123 65.5676C3.94118 66.0541 4.15722 66.0001 3.45508 65.7839C3.83316 65.3514 3.67112 65.4595 4.21123 65.5676Z" fill="black"/>
<path d="M14.5826 115.081C14.7987 115.135 14.9607 115.189 15.0687 115.297C15.1227 115.351 15.0147 115.622 14.9607 115.622C14.7987 115.622 14.6366 115.568 14.4746 115.568C14.4746 115.405 14.5286 115.297 14.5826 115.081Z" fill="black"/>
<path d="M68.8628 61.6758C69.1329 61.9461 69.4569 62.2163 68.9708 62.7028C68.4307 62.2163 68.9708 61.6758 68.8628 61.6758Z" fill="black"/>
<path d="M70.6988 79.0812C70.2668 79.7298 70.4828 79.6217 69.8887 79.4055C70.3208 78.8109 70.1587 78.919 70.6988 79.0812Z" fill="black"/>
<path d="M64.8672 83.946C64.8132 84.1622 64.8132 84.3244 64.7051 84.3785C64.5971 84.4325 64.3811 84.3784 64.3271 84.3244C64.273 84.2703 64.3271 84.0541 64.3811 83.946C64.4891 83.892 64.6511 83.946 64.8672 83.946Z" fill="black"/>
<path d="M118.877 4.91895C119.525 5.35138 119.363 5.13516 119.417 5.6757C118.877 5.62165 119.039 5.78381 118.877 4.91895Z" fill="black"/>
<path d="M39.2649 107.081C39.427 107.135 39.589 107.135 39.697 107.189C39.643 107.297 39.643 107.514 39.589 107.514C39.481 107.568 39.319 107.514 39.2109 107.46C39.2109 107.46 39.2649 107.243 39.2649 107.081Z" fill="black"/>
<path d="M120.714 2.32439C120.552 1.62169 120.552 1.89196 120.822 1.29736C121.146 2.05412 121.092 1.78385 120.93 2.27034C120.876 2.32439 120.768 2.32439 120.714 2.32439Z" fill="black"/>
<path d="M89.6575 77.6217C89.9275 78.3244 89.9275 78.1622 89.5494 78.3244C89.4414 77.5676 89.3874 77.7298 89.6575 77.6217Z" fill="black"/>
<path d="M12.7461 101.189C13.5563 100.703 13.3942 100.757 13.5563 101.027C12.7461 101.514 12.9621 101.514 12.7461 101.189Z" fill="black"/>
<path d="M67.0266 65.4055C67.3507 65.5136 67.5667 65.7298 67.2426 66.0001C67.1886 66.1082 66.9726 66.0542 66.8105 66.0542C67.0806 65.3514 67.0806 65.4055 67.0266 65.4055Z" fill="black"/>
<path d="M67.9451 57.7838C67.9451 58.3244 68.1071 58.2162 67.459 58.2162C67.567 57.7298 67.459 57.8379 67.9451 57.7838Z" fill="black"/>
<path d="M2.37628 80.3244C1.83617 80.3244 1.89018 80.4325 1.9982 79.8379C2.4843 79.946 2.37628 79.8379 2.37628 80.3244Z" fill="black"/>
<path d="M48.6635 114.595C47.9073 114.433 48.0693 114.541 48.1774 113.946C48.8255 114.162 48.6635 114 48.6635 114.595Z" fill="black"/>
<path d="M98.7324 80.1623C98.7864 80.0001 98.8404 79.8379 98.8945 79.6758C98.8945 79.6758 99.1645 79.6758 99.1645 79.7298C99.1105 80.3244 99.1105 80.2163 98.7324 80.1623Z" fill="black"/>
<path d="M65.514 13.6757C65.19 14.2703 65.298 14.1622 64.9199 13.946C65.244 13.4055 65.136 13.4595 65.514 13.6757Z" fill="black"/>
<path d="M102.89 82.4865C102.134 82.2703 102.296 82.3784 102.296 82C103.052 82.2703 102.998 82.1622 102.89 82.4865Z" fill="black"/>
<path d="M2.4845 115.838C1.9984 115.73 2.05241 115.892 2.10643 115.351C2.53851 115.405 2.43049 115.297 2.4845 115.838Z" fill="black"/>
<path d="M58.0605 119.73C58.7087 119.189 58.5467 119.189 58.8167 119.46C58.2226 120.108 58.3846 120.054 58.0605 119.73Z" fill="black"/>
<path d="M71.2941 27.4054C71.1321 27.3513 71.024 27.2973 70.916 27.2432C70.97 27.0811 71.0781 26.9189 71.1861 26.8108C71.1861 26.8108 71.4561 26.9189 71.5101 26.973C71.5101 27.0811 71.4021 27.2432 71.2941 27.4054Z" fill="black"/>
<path d="M118.499 80.5406C118.985 79.8379 118.823 79.892 119.093 80.1622C118.445 80.5946 118.499 80.5406 118.499 80.5406Z" fill="black"/>
<path d="M21.6042 41.7838C21.2802 41.4055 21.2262 41.6217 21.8203 40.973C22.1984 41.3514 22.1984 41.1352 21.6042 41.7838Z" fill="black"/>
<path d="M106.077 93.3514C106.023 93.5676 106.023 93.7298 105.969 93.8379C105.915 93.8919 105.645 93.8379 105.645 93.7838C105.591 93.6757 105.591 93.4595 105.699 93.4055C105.699 93.2974 105.915 93.3514 106.077 93.3514Z" fill="black"/>
<path d="M49.3105 132.162C49.5266 132.108 49.7426 132 49.9587 131.946C49.9587 132.054 50.0127 132.216 50.0127 132.216C49.3105 132.541 49.4186 132.432 49.3105 132.162Z" fill="black"/>
<path d="M27.707 53.7297C28.2471 53.8378 28.1931 53.6216 28.1931 54.3243C27.653 54.1622 27.8151 54.2703 27.707 53.7297Z" fill="black"/>
<path d="M5.67013 68.1082C5.88618 68.2703 6.10222 68.3244 6.10222 68.4325C6.10222 68.5946 5.9942 68.8109 5.88618 68.8649C5.77815 68.919 5.5081 68.8109 5.45409 68.7027C5.40008 68.5406 5.56211 68.3784 5.67013 68.1082Z" fill="black"/>
<path d="M52.5527 131.351C52.9848 131.514 53.1468 131.568 53.3089 131.676C53.3629 131.73 53.2549 132 53.2009 132C52.5527 132.108 52.6608 131.73 52.5527 131.351Z" fill="black"/>
<path d="M11.8817 63.7297C12.0977 63.6216 12.3138 63.5135 12.6378 63.3513C12.6918 63.6216 12.7458 63.8378 12.9079 64.3243C11.7736 63.6216 11.8817 63.6756 11.8817 63.7297Z" fill="black"/>
<path d="M116.34 89.7838C116.394 90.2703 116.502 90.1622 115.854 90.2162C115.854 89.8919 115.692 90 116.34 89.7838Z" fill="black"/>
<path d="M1.5661 68.3784C1.40407 68.973 1.62011 68.8649 0.917969 68.8649C0.97198 68.4865 0.755935 68.5946 1.5661 68.3784Z" fill="black"/>
<path d="M15.7699 80.1082C16.4721 80.7028 16.31 80.4325 16.256 81.0811C15.5539 80.8649 15.7159 81.0811 15.7699 80.1082Z" fill="black"/>
<path d="M43.1547 95.0271C42.9387 95.5136 43.0467 95.4055 42.7227 95.2974C42.8307 94.865 42.7227 94.9731 43.1547 95.0271Z" fill="black"/>
</mask>
<g mask="url(#mask0_532_915)">
<path d="M82.6362 122.649C52.39 130.757 21.2256 112.757 13.1239 82.4865C5.02226 52.2162 23.008 21.027 53.2542 12.9189C83.5004 4.81082 114.665 22.8108 122.767 53.0811C130.868 83.3514 112.882 114.541 82.6362 122.649ZM53.6863 14.4865C24.3042 22.3784 6.80463 52.6487 14.6903 82.0541C22.5759 111.459 52.8221 128.919 82.2042 121.081C111.586 113.189 129.032 82.9189 121.2 53.5135C113.315 24.1081 83.0143 6.59461 53.6863 14.4865Z" fill="#008D96"/>
<path d="M132.434 50.4865C130.598 49.3514 129.842 47.0271 130.706 45.0271C131.678 42.7568 130.598 40.1082 128.276 39.2433C126.223 38.4865 125.089 36.3244 125.629 34.1622C126.223 31.7298 124.657 29.3514 122.226 28.919C120.066 28.5406 118.554 26.5947 118.716 24.4325C118.824 21.946 116.879 19.8919 114.395 19.8379C112.234 19.8379 110.398 18.2163 110.128 16.0541C109.804 13.6217 107.535 11.8919 105.105 12.3244C102.944 12.7028 100.892 11.4055 100.244 9.35141C99.4877 6.97303 96.9491 5.72978 94.6266 6.59465C92.5742 7.35141 90.3058 6.48654 89.2796 4.5406C88.1453 2.32438 85.3908 1.56762 83.2303 2.81087C81.3399 3.89195 78.9634 3.45951 77.6132 1.72978C76.1008 -0.216161 73.2383 -0.486432 71.3479 1.13519C69.7275 2.5406 67.243 2.5406 65.6227 1.08114C63.7863 -0.540486 60.9237 -0.32427 59.3574 1.62168C58.0071 3.29735 55.5766 3.72978 53.7402 2.59465C51.6338 1.29735 48.8792 2.05411 47.691 4.21627C46.6648 6.10816 44.3423 6.97303 42.3439 6.16222C40.0214 5.2433 37.4289 6.48654 36.6727 8.86492C35.9706 10.919 33.8642 12.1622 31.7577 11.7838C29.3272 11.2974 27.0047 12.973 26.6807 15.4595C26.3566 17.6217 24.5202 19.1892 22.3598 19.1892C19.8753 19.1892 17.8769 21.2433 17.9849 23.6757C18.0929 25.8379 16.5266 27.7298 14.3661 28.1082C11.8816 28.4865 10.2613 30.8649 10.8014 33.2974C11.2875 35.4055 10.0993 37.5676 8.04685 38.3244C5.72437 39.1892 4.59014 41.7838 5.56234 44.0541C6.42652 46.0541 5.61635 48.3784 3.77997 49.4595C1.61953 50.7028 0.971395 53.5136 2.32167 55.5676C3.50992 57.4055 3.18585 59.8379 1.51151 61.2433C-0.378883 62.8649 -0.540916 65.7298 1.18744 67.5136C2.69975 69.0811 2.75376 71.5136 1.40348 73.2433C-0.162838 75.1892 0.215239 78.0001 2.21365 79.4595C3.94201 80.7568 4.48212 83.1352 3.45591 85.0271C2.26766 87.1892 3.13184 89.946 5.34629 91.0271C7.29069 92.0001 8.26289 94.2163 7.56075 96.3244C6.75058 98.6487 8.10086 101.189 10.4773 101.892C12.5838 102.487 13.88 104.541 13.61 106.703C13.2319 109.135 15.0143 111.405 17.4988 111.622C19.6592 111.838 21.3336 113.622 21.4416 115.784C21.5496 118.27 23.6561 120.162 26.1406 119.946C28.301 119.784 30.2994 121.189 30.7315 123.351C31.2716 125.784 33.7021 127.243 36.0786 126.595C38.185 126.054 40.3455 127.081 41.2097 129.135C42.1819 131.405 44.8284 132.432 47.0429 131.405C48.9873 130.487 51.3638 131.135 52.552 132.973C53.9023 135.027 56.7109 135.568 58.7093 134.162C60.4916 132.919 62.9221 133.135 64.3804 134.703C66.0548 136.487 68.9174 136.541 70.6457 134.757C72.158 133.189 74.5885 132.973 76.3169 134.27C78.3153 135.73 81.1239 135.243 82.4742 133.189C83.6624 131.405 86.0389 130.757 87.9833 131.73C90.1977 132.811 92.8983 131.838 93.8705 129.568C94.7347 127.568 96.9491 126.541 99.0556 127.135C101.432 127.838 103.917 126.378 104.457 123.946C104.943 121.838 106.941 120.378 109.102 120.595C111.586 120.865 113.747 118.973 113.855 116.487C113.963 114.324 115.691 112.541 117.851 112.378C120.336 112.162 122.118 109.946 121.794 107.514C121.524 105.351 122.874 103.351 124.981 102.757C127.357 102.108 128.762 99.6217 128.006 97.2433C127.357 95.1892 128.33 92.919 130.274 92.0001C132.488 90.973 133.407 88.2163 132.272 86.0541C131.246 84.1082 131.84 81.7298 133.569 80.4865C135.567 79.0271 135.999 76.2163 134.433 74.2703C133.083 72.5406 133.191 70.1082 134.757 68.5406C136.485 66.7568 136.377 63.8919 134.541 62.2703C132.921 60.8109 132.596 58.3784 133.839 56.5947C135.189 54.5406 134.595 51.7298 132.434 50.4865ZM83.2843 125.027C51.6878 133.514 19.2271 114.757 10.7474 83.1352C2.26766 51.5136 21.0095 18.973 52.606 10.5406C84.2025 2.05411 116.663 20.8109 125.143 52.4325C133.623 84.0541 114.881 116.541 83.2843 125.027Z" fill="#008D96"/>
<path d="M77.128 102.108C58.2241 107.189 38.6721 95.892 33.5951 76.973C28.518 58.0541 39.8063 38.4866 58.7102 33.4055C77.6141 28.3244 97.1662 39.6217 102.243 58.5406C107.32 77.5136 96.0319 97.0271 77.128 102.108ZM59.1963 35.0271C41.1566 39.892 30.4084 58.4866 35.2154 76.5406C40.0764 94.5947 58.6562 105.351 76.6959 100.541C94.7357 95.6758 105.484 77.0812 100.677 59.0271C95.8159 40.919 77.2361 30.1622 59.1963 35.0271Z" fill="#008D96"/>
<path d="M59.7899 37.3514C42.9924 41.8379 33.0004 59.1352 37.5373 75.946C42.0202 92.7568 59.3038 102.757 76.1013 98.2163C92.8987 93.7298 102.891 76.4325 98.3538 59.6217C93.8709 42.8109 76.5874 32.8109 59.7899 37.3514ZM66.0012 93.6217L43.4785 80.6487L50.0139 69.2973L61.1402 75.7298L78.7478 45.2433L90.0901 51.7838L66.0012 93.6217Z" fill="#008D96"/>
<path d="M25.6016 56.7027L26.4657 53.7838L27.762 54.1622L26.8978 57.0811L25.6016 56.7027Z" fill="#008D96"/>
<path d="M25.1692 45.0271C24.9531 45.0812 24.7911 45.0271 24.575 44.919C24.413 44.8109 24.251 44.6487 24.197 44.4866C24.143 44.2703 24.197 44.1082 24.305 43.892C24.413 43.7298 24.575 43.5676 24.7371 43.5136C24.9531 43.4595 25.1152 43.5136 25.2772 43.6217C25.4392 43.7298 25.6013 43.892 25.6553 44.0541C25.7093 44.2703 25.6553 44.4325 25.5472 44.5947C25.4932 44.8649 25.3852 44.973 25.1692 45.0271ZM26.2494 43.1352C26.0333 43.1893 25.8713 43.1352 25.7093 43.0271C25.5472 42.919 25.3852 42.7568 25.3312 42.5947C25.2772 42.3785 25.3312 42.2163 25.4392 42.0541C25.5472 41.892 25.7093 41.7298 25.8713 41.6757C26.0874 41.6217 26.2494 41.6757 26.4654 41.7839C26.6275 41.892 26.7895 42.0541 26.8435 42.2163C26.8975 42.4325 26.8435 42.5947 26.7355 42.8109C26.6275 42.973 26.4654 43.0812 26.2494 43.1352ZM31.8665 49.5136C31.2724 49.892 30.6243 50.0541 29.9222 50.1082C29.22 50.1082 28.5719 49.946 27.9237 49.5676C27.2756 49.1893 26.7895 48.7028 26.4654 48.1082C26.1414 47.5136 25.9793 46.8649 25.9793 46.1082C25.9793 45.4055 26.1954 44.7028 26.6275 44.0001C27.0055 43.2974 27.5457 42.8109 28.1398 42.4325C28.7339 42.0541 29.382 41.892 30.0842 41.8379C30.7863 41.8379 31.4345 42.0001 32.0826 42.3785C32.7307 42.7568 33.2168 43.2433 33.5409 43.8379C33.865 44.4325 34.027 45.0812 34.027 45.8379C34.027 46.5947 33.811 47.2433 33.3789 47.946C33.0008 48.5947 32.4607 49.1352 31.8665 49.5136ZM32.4067 46.0001C32.4067 45.5676 32.2986 45.1893 32.0826 44.8109C31.8666 44.4325 31.5425 44.1622 31.1644 43.892C30.7863 43.6757 30.3542 43.5136 29.9222 43.5136C29.4901 43.5136 29.112 43.6217 28.7339 43.8379C28.3558 44.0541 28.0858 44.3244 27.8697 44.7028C27.6537 45.0812 27.5457 45.5136 27.5457 45.892C27.5457 46.3244 27.6537 46.7028 27.8697 47.0812C28.0858 47.4595 28.4098 47.7298 28.7879 48.0001C29.166 48.2163 29.5981 48.3784 30.0302 48.3784C30.4623 48.3784 30.8403 48.2703 31.2184 48.0541C31.5965 47.8379 31.8666 47.5676 32.0826 47.1893C32.2986 46.8109 32.4067 46.3784 32.4067 46.0001Z" fill="#008D96"/>
<path d="M30.3535 38.4865L32.676 35.946C33.2161 35.3514 33.8102 34.9189 34.4584 34.6487C35.1065 34.3784 35.7546 34.3243 36.4028 34.4325C37.0509 34.5406 37.645 34.8649 38.2391 35.4054C38.7793 35.8919 39.1573 36.4865 39.3734 37.1352C39.5894 37.7838 39.5354 38.4325 39.3734 39.1352C39.1573 39.7838 38.8333 40.4325 38.2391 41.0811L35.9167 43.6216L30.3535 38.4865ZM37.1589 40.1081C37.645 39.5676 37.9151 38.973 37.9151 38.3243C37.9151 37.7297 37.645 37.1352 37.1049 36.6487C36.5648 36.1622 36.0247 35.946 35.3766 36C34.7824 36.0541 34.1883 36.3784 33.7022 36.9189L32.622 38.1081L36.0787 41.2433L37.1589 40.1081Z" fill="#008D96"/>
<path d="M42.1284 28.3244C42.8305 28.2163 43.4786 28.3244 44.1268 28.5947C44.7749 28.8649 45.261 29.2974 45.6931 29.892C46.1252 30.4865 46.3952 31.1352 46.4493 31.8379C46.5033 32.5406 46.3952 33.1893 46.1252 33.7838C45.8551 34.4325 45.369 34.919 44.7749 35.3514C44.1808 35.7838 43.4786 36.0541 42.8305 36.1082C42.1284 36.1622 41.4802 36.0541 40.8321 35.7838C40.184 35.5136 39.6438 35.0271 39.2118 34.4325L38.9957 34.1082L44.0188 30.4865C43.7487 30.2163 43.4246 30.0001 43.1006 29.892C42.7765 29.7838 42.3984 29.7298 42.0203 29.7838C41.6423 29.8379 41.3182 30.0001 40.9941 30.2163C40.6701 30.4325 40.4 30.7568 40.13 31.0811C39.9139 31.4595 39.7519 31.7838 39.6979 32.1622L38.1855 31.8379C38.2936 31.2974 38.4556 30.8109 38.8337 30.2703C39.1577 29.7298 39.5898 29.2974 40.13 28.919C40.7241 28.6487 41.4262 28.3784 42.1284 28.3244ZM44.8289 33.0271C44.9369 32.5406 44.8829 32.0541 44.6669 31.5676L41.1562 34.1082C41.5342 34.4865 42.0203 34.7028 42.5064 34.7568C42.9925 34.8109 43.4786 34.6487 43.9647 34.2703C44.3968 33.946 44.7209 33.5136 44.8289 33.0271Z" fill="#008D96"/>
<path d="M52.0674 22.8649L55.092 29.7838L53.7957 30.3784L48.5026 27.6757L50.339 31.8919L48.7727 32.5946L45.748 25.6757L47.0983 25.0811L52.3914 27.7838L50.555 23.5676L52.0674 22.8649Z" fill="#008D96"/>
<path d="M54.6043 21.2432C54.3882 21.1351 54.2802 20.9189 54.1722 20.6487C54.1182 20.3784 54.1182 20.1622 54.2262 19.946C54.3342 19.7297 54.5503 19.6216 54.7663 19.5135C54.9824 19.4054 55.2524 19.4595 55.4685 19.5676C55.6845 19.6757 55.7925 19.8919 55.9005 20.1081C55.9546 20.3784 55.9546 20.5946 55.8465 20.8108C55.7385 21.027 55.5225 21.1351 55.3064 21.2432C55.0364 21.4054 54.8203 21.3514 54.6043 21.2432ZM54.6043 22.2162L56.2786 21.7838L58.277 29.0811L56.6027 29.5135L54.6043 22.2162Z" fill="#008D96"/>
<path d="M58.7109 21.1351L60.4393 20.8649L61.3035 26.9189L65.0303 26.3784L65.2463 27.7838L59.7912 28.5946L58.7109 21.1351Z" fill="#008D96"/>
<path d="M66.0552 19.4055C65.8932 19.2433 65.7852 19.0271 65.7852 18.7568C65.7852 18.4865 65.8392 18.2703 66.0012 18.1082C66.1632 17.946 66.3793 17.8379 66.6493 17.8379C66.9194 17.8379 67.1354 17.8919 67.2975 18.0541C67.4595 18.2163 67.5675 18.4325 67.5675 18.7028C67.5675 18.973 67.5135 19.1892 67.3515 19.3514C67.1894 19.5136 66.9734 19.6217 66.7033 19.6217C66.4333 19.6217 66.2172 19.5676 66.0552 19.4055ZM65.8392 20.3244L67.5675 20.2703L67.7836 27.8379L66.0552 27.8919L65.8392 20.3244Z" fill="#008D96"/>
<path d="M76.209 25.2433C76.4251 25.5676 76.4791 26.0001 76.4251 26.4325C76.3711 27.0812 76.047 27.5676 75.5069 27.8379C74.9668 28.1082 74.2106 28.2163 73.2384 28.1082L69.3496 27.6757L70.2138 20.1622L73.8866 20.5947C74.8047 20.7028 75.5069 20.973 75.939 21.3514C76.3711 21.7839 76.5871 22.2703 76.5331 22.8649C76.4791 23.2433 76.3711 23.5676 76.155 23.7839C75.939 24.0541 75.6689 24.2703 75.3449 24.3784C75.6689 24.6487 75.993 24.919 76.209 25.2433ZM74.2646 26.7568C74.5347 26.6487 74.6427 26.4325 74.6967 26.1082C74.7507 25.5136 74.3186 25.1352 73.4004 25.0271L71.402 24.8109L71.186 26.6487L73.1844 26.8649C73.6705 26.919 74.0486 26.8649 74.2646 26.7568ZM71.7801 21.7298L71.5641 23.5136L73.2924 23.7298C73.7245 23.7839 74.0486 23.7298 74.3186 23.6217C74.5347 23.5136 74.6967 23.2974 74.7507 22.973C74.8047 22.7028 74.6967 22.4325 74.4807 22.2703C74.2646 22.1082 73.9406 22.0001 73.5085 21.946L71.7801 21.7298Z" fill="#008D96"/>
<path d="M80.9633 26.0541L83.8259 27.0811L83.3938 28.3784L80.5312 27.3514L80.9633 26.0541Z" fill="#008D96"/>
<path d="M110.399 79.2973L109.535 82.2162L108.238 81.8379L109.102 78.9189L110.399 79.2973Z" fill="#008D96"/>
<path d="M104.133 86.5405C104.727 86.1621 105.375 86 106.077 85.9459C106.78 85.9459 107.428 86.1081 108.076 86.4865C108.724 86.8648 109.21 87.3513 109.534 87.9459C109.858 88.5405 110.02 89.1892 110.02 89.9459C110.02 90.6486 109.804 91.3513 109.372 92.054C108.94 92.7567 108.454 93.2432 107.86 93.6216C107.266 94 106.618 94.1621 105.915 94.2162C105.213 94.2703 104.565 94.054 103.917 93.6757C103.269 93.2973 102.783 92.8108 102.459 92.2162C102.135 91.6216 101.973 90.9729 101.973 90.2162C101.973 89.4594 102.189 88.8108 102.621 88.1081C102.999 87.4054 103.485 86.8648 104.133 86.5405ZM103.539 90.054C103.539 90.4865 103.647 90.8648 103.863 91.2432C104.079 91.6216 104.403 91.8919 104.781 92.1621C105.159 92.4324 105.591 92.5405 106.023 92.5405C106.456 92.5405 106.834 92.4324 107.212 92.2162C107.59 92 107.86 91.7297 108.076 91.3513C108.292 90.973 108.4 90.5405 108.4 90.1621C108.4 89.7297 108.292 89.3513 108.076 88.973C107.86 88.5946 107.536 88.3243 107.158 88.054C106.78 87.8378 106.348 87.6757 105.915 87.6757C105.483 87.6757 105.105 87.7838 104.727 88C104.349 88.2162 104.079 88.4865 103.863 88.8648C103.701 89.2432 103.539 89.6216 103.539 90.054ZM109.75 92.8648C109.966 92.8108 110.128 92.8648 110.29 92.973C110.452 93.0811 110.614 93.2432 110.668 93.4054C110.722 93.6216 110.668 93.7838 110.56 93.9459C110.452 94.1081 110.29 94.2703 110.128 94.3243C109.912 94.3784 109.75 94.3243 109.534 94.2162C109.372 94.1081 109.21 93.9459 109.156 93.7838C109.102 93.5675 109.156 93.4054 109.264 93.1892C109.372 92.973 109.534 92.9189 109.75 92.8648ZM110.83 90.973C111.047 90.9189 111.209 90.973 111.425 91.0811C111.587 91.1892 111.749 91.3513 111.803 91.5135C111.857 91.7297 111.803 91.8919 111.695 92.1081C111.587 92.2702 111.425 92.4324 111.263 92.4865C111.101 92.5405 110.884 92.4865 110.722 92.3784C110.56 92.2702 110.398 92.1081 110.344 91.9459C110.29 91.7297 110.344 91.5676 110.452 91.4054C110.56 91.2432 110.614 91.027 110.83 90.973Z" fill="#008D96"/>
<path d="M105.645 97.5135L103.323 100.054C102.783 100.649 102.189 101.081 101.54 101.351C100.892 101.622 100.244 101.676 99.596 101.568C98.9479 101.459 98.3538 101.135 97.7597 100.595C97.2196 100.108 96.8415 99.5135 96.6254 98.8649C96.4634 98.2163 96.4634 97.5676 96.6254 96.8649C96.8415 96.2163 97.1655 95.5676 97.7597 94.919L100.082 92.3784L105.645 97.5135ZM98.8399 95.8919C98.3538 96.4325 98.0837 97.0271 98.0837 97.6757C98.0837 98.3244 98.3538 98.8649 98.8939 99.3514C99.434 99.8379 99.9741 100.054 100.622 100C101.216 99.946 101.81 99.6217 102.297 99.0811L103.377 97.8919L99.9201 94.7568L98.8399 95.8919Z" fill="#008D96"/>
<path d="M93.8696 107.73C93.1674 107.838 92.5193 107.73 91.8711 107.46C91.223 107.189 90.7369 106.757 90.3048 106.162C89.8727 105.568 89.6027 104.919 89.5487 104.216C89.4946 103.514 89.6027 102.865 89.8727 102.27C90.1428 101.676 90.6289 101.135 91.223 100.703C91.8171 100.27 92.5193 100 93.1674 99.946C93.8696 99.892 94.5177 100 95.1658 100.27C95.814 100.541 96.3541 101.027 96.7862 101.622L97.0022 101.946L91.9792 105.568C92.2492 105.838 92.5733 106.054 92.8974 106.162C93.2214 106.27 93.5995 106.324 93.9776 106.27C94.3557 106.216 94.6797 106.054 95.0038 105.838C95.3278 105.622 95.5979 105.297 95.868 104.973C96.138 104.649 96.246 104.27 96.3001 103.892L97.8124 104.216C97.7043 104.757 97.5423 105.243 97.1642 105.784C96.8402 106.324 96.4081 106.757 95.868 107.135C95.2738 107.351 94.5717 107.622 93.8696 107.73ZM91.169 102.973C91.061 103.46 91.115 103.946 91.331 104.432L94.8418 101.892C94.4637 101.514 93.9776 101.297 93.4915 101.243C93.0054 101.189 92.5193 101.351 92.0332 101.73C91.6011 102.054 91.277 102.487 91.169 102.973Z" fill="#008D96"/>
<path d="M83.9328 113.135L80.9082 106.216L82.2045 105.622L87.4976 108.324L85.6612 104.108L87.2275 103.405L90.2521 110.324L88.9019 110.919L83.6088 108.216L85.4451 112.432L83.9328 113.135Z" fill="#008D96"/>
<path d="M81.3407 113.838L79.6664 114.27L77.668 106.973L79.3423 106.541L81.3407 113.838ZM81.3947 114.757C81.6108 114.865 81.7188 115.081 81.8268 115.351C81.8808 115.622 81.8808 115.838 81.7728 116.054C81.6648 116.27 81.4487 116.378 81.2327 116.486C80.9626 116.541 80.7466 116.541 80.5306 116.432C80.3145 116.324 80.2065 116.108 80.0985 115.892C80.0445 115.622 80.0445 115.405 80.1525 115.189C80.2605 114.973 80.4765 114.865 80.6926 114.757C80.9626 114.649 81.1787 114.649 81.3947 114.757Z" fill="#008D96"/>
<path d="M77.2893 114.865L75.5609 115.135L74.6967 109.081L70.9699 109.622L70.7539 108.216L76.209 107.405L77.2893 114.865Z" fill="#008D96"/>
<path d="M70.1592 115.676L68.4309 115.73L68.2148 108.162L69.9432 108.108L70.1592 115.676ZM69.9432 116.595C70.1052 116.757 70.2132 116.973 70.2132 117.243C70.2132 117.514 70.1592 117.73 69.9972 117.892C69.8352 118.054 69.6191 118.162 69.3491 118.162C69.079 118.162 68.863 118.108 68.7009 117.946C68.5389 117.784 68.4309 117.568 68.4309 117.297C68.4309 117.027 68.4849 116.811 68.6469 116.649C68.809 116.487 69.025 116.378 69.2951 116.378C69.5651 116.378 69.7812 116.432 69.9432 116.595Z" fill="#008D96"/>
<path d="M59.7893 110.757C59.5732 110.432 59.5192 110 59.5732 109.568C59.6272 108.919 59.9513 108.432 60.4914 108.162C61.0315 107.892 61.7877 107.784 62.7599 107.892L66.6487 108.324L65.7845 115.838L62.1117 115.405C61.1935 115.297 60.4914 115.027 60.0593 114.649C59.6272 114.216 59.4112 113.73 59.4652 113.135C59.5192 112.757 59.6272 112.432 59.8433 112.162C60.0593 111.892 60.3294 111.676 60.6534 111.568C60.2754 111.405 60.0053 111.135 59.7893 110.757ZM61.6796 109.297C61.4096 109.405 61.3016 109.622 61.2476 109.946C61.1935 110.595 61.6256 110.919 62.5438 111.027L64.5422 111.243L64.7583 109.405L62.7599 109.189C62.3278 109.135 61.9497 109.135 61.6796 109.297ZM64.2182 114.27L64.4342 112.486L62.7059 112.27C62.2738 112.216 61.9497 112.27 61.6796 112.378C61.4636 112.486 61.3016 112.703 61.2476 113.027C61.1935 113.297 61.3016 113.568 61.5176 113.73C61.7337 113.892 62.0577 114 62.4898 114.054L64.2182 114.27Z" fill="#008D96"/>
<path d="M55.0364 109.946L52.1738 108.973L52.6059 107.676L55.4685 108.703L55.0364 109.946Z" fill="#008D96"/>
</g>
</g>
<defs>
<clipPath id="clip0_532_915">
<rect width="136" height="136" fill="white"/>
</clipPath>
</defs>
</svg>
