<svg width="17" height="17" viewBox="0 0 17 17" fill="none" xmlns="http://www.w3.org/2000/svg">
<path d="M15.9453 3.55469L13.4453 1.05469C13.3268 0.93733 13.1668 0.87149 13 0.87149C12.8332 0.87149 12.6732 0.93733 12.5547 1.05469L5.05469 8.55469C4.93861 8.67376 4.87406 8.83372 4.875 9V11.5C4.875 11.6658 4.94085 11.8247 5.05806 11.9419C5.17527 12.0592 5.33424 12.125 5.5 12.125H8C8.16628 12.1259 8.32625 12.0614 8.44531 11.9453L15.9453 4.44532C16.0627 4.32682 16.1285 4.16679 16.1285 4.00001C16.1285 3.83323 16.0627 3.67319 15.9453 3.55469ZM7.74219 10.875H6.125V9.25782L11.125 4.25782L12.7422 5.875L7.74219 10.875ZM13.625 4.99219L12.0078 3.37501L13 2.38282L14.6172 4.00001L13.625 4.99219ZM15.5 8.375V15.25C15.5 15.5815 15.3683 15.8995 15.1339 16.1339C14.8995 16.3683 14.5815 16.5 14.25 16.5H1.75C1.41848 16.5 1.10054 16.3683 0.866116 16.1339C0.631696 15.8995 0.5 15.5815 0.5 15.25V2.75001C0.5 2.41849 0.631696 2.10054 0.866116 1.86612C1.10054 1.6317 1.41848 1.50001 1.75 1.50001H8.625C8.79076 1.50001 8.94973 1.56585 9.06694 1.68306C9.18415 1.80027 9.25 1.95925 9.25 2.12501C9.25 2.29077 9.18415 2.44974 9.06694 2.56695C8.94973 2.68416 8.79076 2.75001 8.625 2.75001H1.75V15.25H14.25V8.375C14.25 8.20924 14.3158 8.05027 14.4331 7.93306C14.5503 7.81585 14.7092 7.75 14.875 7.75C15.0408 7.75 15.1997 7.81585 15.3169 7.93306C15.4342 8.05027 15.5 8.20924 15.5 8.375Z" fill="white"/>
</svg>
