<svg width="24" height="24" viewBox="0 0 24 24" fill="none" xmlns="http://www.w3.org/2000/svg">
<path d="M4 6.25C4 5.65326 4.23705 5.08097 4.65901 4.65901C5.08097 4.23705 5.65326 4 6.25 4H14.75C15.3467 4 15.919 4.23705 16.341 4.65901C16.7629 5.08097 17 5.65326 17 6.25V14H20.5V17.25C20.5 18.112 20.1576 18.9386 19.5481 19.5481C18.9386 20.1576 18.112 20.5 17.25 20.5H7.25C6.38805 20.5 5.5614 20.1576 4.9519 19.5481C4.34241 18.9386 4 18.112 4 17.25V6.25ZM17 15.5V19H17.25C17.7141 19 18.1592 18.8156 18.4874 18.4874C18.8156 18.1592 19 17.7141 19 17.25V15.5H17ZM15.5 19V6.25C15.5 6.05109 15.421 5.86032 15.2803 5.71967C15.1397 5.57902 14.9489 5.5 14.75 5.5H6.25C6.05109 5.5 5.86032 5.57902 5.71967 5.71967C5.57902 5.86032 5.5 6.05109 5.5 6.25V17.25C5.5 18.216 6.284 19 7.25 19H15.5ZM7 8.75C7 8.55109 7.07902 8.36032 7.21967 8.21967C7.36032 8.07902 7.55109 8 7.75 8H13.25C13.4489 8 13.6397 8.07902 13.7803 8.21967C13.921 8.36032 14 8.55109 14 8.75C14 8.94891 13.921 9.13968 13.7803 9.28033C13.6397 9.42098 13.4489 9.5 13.25 9.5H7.75C7.55109 9.5 7.36032 9.42098 7.21967 9.28033C7.07902 9.13968 7 8.94891 7 8.75ZM7 12.25C7 12.0511 7.07902 11.8603 7.21967 11.7197C7.36032 11.579 7.55109 11.5 7.75 11.5H13.25C13.4489 11.5 13.6397 11.579 13.7803 11.7197C13.921 11.8603 14 12.0511 14 12.25C14 12.4489 13.921 12.6397 13.7803 12.7803C13.6397 12.921 13.4489 13 13.25 13H7.75C7.55109 13 7.36032 12.921 7.21967 12.7803C7.07902 12.6397 7 12.4489 7 12.25ZM7 15.75C7 15.5511 7.07902 15.3603 7.21967 15.2197C7.36032 15.079 7.55109 15 7.75 15H10.25C10.4489 15 10.6397 15.079 10.7803 15.2197C10.921 15.3603 11 15.5511 11 15.75C11 15.9489 10.921 16.1397 10.7803 16.2803C10.6397 16.421 10.4489 16.5 10.25 16.5H7.75C7.55109 16.5 7.36032 16.421 7.21967 16.2803C7.07902 16.1397 7 15.9489 7 15.75Z" fill="#939393"/>
</svg>
