<svg width="24" height="24" viewBox="0 0 24 24" fill="none" xmlns="http://www.w3.org/2000/svg">
<path d="M12 17.25C11.7775 17.25 11.56 17.316 11.375 17.4396C11.19 17.5632 11.0458 17.7389 10.9606 17.9445C10.8755 18.15 10.8532 18.3762 10.8966 18.5945C10.94 18.8127 11.0472 19.0132 11.2045 19.1705C11.3618 19.3278 11.5623 19.435 11.7805 19.4784C11.9988 19.5218 12.225 19.4995 12.4305 19.4144C12.6361 19.3292 12.8118 19.185 12.9354 19C13.059 18.815 13.125 18.5975 13.125 18.375C13.125 18.0766 13.0065 17.7905 12.7955 17.5795C12.5845 17.3685 12.2984 17.25 12 17.25Z" fill="#C89F9F"/>
<path d="M11.25 9H12.75V15.75H11.25V9Z" fill="#C89F9F"/>
<path d="M21.7497 22.5H2.2497C2.1209 22.5 1.99428 22.4667 1.88205 22.4035C1.76981 22.3404 1.67574 22.2493 1.6089 22.1392C1.54206 22.0291 1.5047 21.9037 1.50041 21.7749C1.49613 21.6462 1.52507 21.5186 1.58445 21.4043L11.3345 2.65425C11.3978 2.53255 11.4933 2.43057 11.6106 2.35939C11.7279 2.28822 11.8625 2.25058 11.9997 2.25058C12.1369 2.25058 12.2715 2.28822 12.3888 2.35939C12.5061 2.43057 12.6016 2.53255 12.665 2.65425L22.415 21.4043C22.4743 21.5186 22.5033 21.6462 22.499 21.7749C22.4947 21.9037 22.4573 22.0291 22.3905 22.1392C22.3237 22.2493 22.2296 22.3404 22.1174 22.4035C22.0051 22.4667 21.8785 22.5 21.7497 22.5ZM3.4872 21H20.5122L20.513 20.9978L12.0012 4.6275H11.9982L3.4857 20.9978L3.4872 21Z" fill="#C89F9F"/>
</svg>
